<svg version="1.1" preserveAspectRatio="none" xmlns="http://www.w3.org/2000/svg" width="500" height="500" viewBox="0 0 500 500"><rect width="100%" height="100%" fill="#121B31" fill-opacity="1"/><svg viewBox="124.4698 145.504 368.4605 176" width="333" height="159.06182616589837" x="83.5px" y="170.4691px" xmlns="http://www.w3.org/2000/svg" xmlns:xlink="http://www.w3.org/1999/xlink" preserveAspectRatio="none"><defs></defs><style>.companyName {fill:#F7F7F7;fill-opacity:1;}.icon3 {fill:#D0E156;fill-opacity:1;}.icon3-str {stroke:#D0E156;stroke-opacity:1;}.shapeStroke-str {stroke:#F7F7F7;stroke-opacity:1;}.text {fill:#F7F7F7;fill-opacity:1;}</style><g opacity="1" transform="rotate(0 124.4698 145.504)">
<svg width="368.4605" height="120" x="124.4698" y="145.504" version="1.1" preserveAspectRatio="none" viewBox="0.76 -26.8 235.20000000000002 76.6">
  <g transform="matrix(1 0 0 1 0 0)" class="companyName"><path id="id-D6z1nYkh15" d="M12.60-12.92L23.44-12.92L23.44 0L21.84 0L21.76-4.60Q20.68-2.20 18.38-0.90Q16.08 0.40 12.68 0.40L12.68 0.40Q9.08 0.40 6.38-1.26Q3.68-2.92 2.22-6Q0.76-9.08 0.76-13.20L0.76-13.20Q0.76-17.32 2.26-20.40Q3.76-23.48 6.48-25.14Q9.20-26.80 12.80-26.80L12.80-26.80Q16.84-26.80 19.40-25.20Q21.96-23.60 23.24-20.32L23.24-20.32L21.40-19.36Q20.48-22.12 18.30-23.54Q16.12-24.96 12.80-24.96L12.80-24.96Q9.84-24.96 7.60-23.54Q5.36-22.12 4.12-19.46Q2.88-16.80 2.88-13.20L2.88-13.20Q2.88-7.72 5.50-4.58Q8.12-1.44 12.76-1.44L12.76-1.44Q15.64-1.44 17.64-2.58Q19.64-3.72 20.60-5.58Q21.56-7.44 21.56-9.56L21.56-9.56L21.56-11.04L12.60-11.04L12.60-12.92Z M32.52-1.84L48.36-1.84L48.36 0L30.52 0L30.52-26.40L32.52-26.40L32.52-1.84Z M62.32-26.80Q66.04-26.80 68.78-25.14Q71.52-23.48 73-20.42Q74.48-17.36 74.48-13.20L74.48-13.20Q74.48-9.04 73-5.98Q71.52-2.92 68.78-1.26Q66.04 0.40 62.32 0.40L62.32 0.40Q58.60 0.40 55.86-1.26Q53.12-2.92 51.64-5.98Q50.16-9.04 50.16-13.20L50.16-13.20Q50.16-17.36 51.64-20.42Q53.12-23.48 55.86-25.14Q58.60-26.80 62.32-26.80L62.32-26.80ZM62.32-24.96Q59.24-24.96 56.98-23.54Q54.72-22.12 53.50-19.46Q52.28-16.80 52.28-13.20L52.28-13.20Q52.28-9.60 53.50-6.94Q54.72-4.28 56.98-2.86Q59.24-1.44 62.32-1.44L62.32-1.44Q65.40-1.44 67.68-2.86Q69.96-4.28 71.18-6.94Q72.40-9.60 72.40-13.20L72.40-13.20Q72.40-16.80 71.18-19.46Q69.96-22.12 67.68-23.54Q65.40-24.96 62.32-24.96L62.32-24.96Z M81.12 0L81.12-26.40L90.44-26.40Q94.76-26.40 96.90-24.60Q99.04-22.80 99.04-19.40L99.04-19.40Q99.04-17.08 97.78-15.48Q96.52-13.88 94.20-13.40L94.20-13.40L94.20-13.36Q96.76-12.96 98.26-11.28Q99.76-9.60 99.76-7.12L99.76-7.12Q99.76-3.72 97.34-1.86Q94.92 0 90.44 0L90.44 0L81.12 0ZM83.12-14.24L90.48-14.24Q96.92-14.24 96.92-19.40L96.92-19.40Q96.92-24.56 90.48-24.56L90.48-24.56L83.12-24.56L83.12-14.24ZM83.12-1.84L90.84-1.84Q94.20-1.84 95.92-3.20Q97.64-4.56 97.64-7.12L97.64-7.12Q97.64-9.72 95.92-11.06Q94.20-12.40 90.84-12.40L90.84-12.40L83.12-12.40L83.12-1.84Z M124.00 0L120.68-8.28L108.04-8.28L104.76 0L102.64 0L113.20-26.40L115.56-26.40L126.12 0L124.00 0ZM108.80-10.12L119.96-10.12L115.36-21.64L114.40-24.44L114.36-24.44L113.40-21.72L108.80-10.12Z M133.04-1.84L148.88-1.84L148.88 0L131.04 0L131.04-26.40L133.04-26.40L133.04-1.84Z M22.12 42L18.80 33.72L6.16 33.72L2.88 42L0.76 42L11.32 15.60L13.68 15.60L24.24 42L22.12 42ZM6.92 31.88L18.08 31.88L13.48 20.36L12.52 17.56L12.48 17.56L11.52 20.28L6.92 31.88Z M45.76 47.80Q47.12 47.80 48.30 47.42Q49.48 47.04 50.20 46.32L50.20 46.32L50.92 48.16Q50.08 48.92 48.66 49.36Q47.24 49.80 45.72 49.80L45.72 49.80Q42.56 49.80 40.48 47.96Q38.40 46.12 38.16 42.36L38.16 42.36Q34.68 42.20 32.12 40.50Q29.56 38.80 28.18 35.80Q26.80 32.80 26.80 28.80L26.80 28.80Q26.80 24.64 28.28 21.58Q29.76 18.52 32.50 16.86Q35.24 15.20 38.96 15.20L38.96 15.20Q42.68 15.20 45.42 16.86Q48.16 18.52 49.64 21.58Q51.12 24.64 51.12 28.80L51.12 28.80Q51.12 32.76 49.76 35.74Q48.40 38.72 45.90 40.44Q43.40 42.16 39.96 42.36L39.96 42.36Q40.40 47.80 45.76 47.80L45.76 47.80ZM28.92 28.80Q28.92 32.40 30.14 35.06Q31.36 37.72 33.62 39.14Q35.88 40.56 38.96 40.56L38.96 40.56Q42.04 40.56 44.32 39.14Q46.60 37.72 47.82 35.06Q49.04 32.40 49.04 28.80L49.04 28.80Q49.04 25.20 47.82 22.54Q46.60 19.88 44.32 18.46Q42.04 17.04 38.96 17.04L38.96 17.04Q35.88 17.04 33.62 18.46Q31.36 19.88 30.14 22.54Q28.92 25.20 28.92 28.80L28.92 28.80Z M77.80 15.60L77.80 32.36Q77.80 37.24 75.16 39.82Q72.52 42.40 67.64 42.40L67.64 42.40Q62.76 42.40 60.10 39.82Q57.44 37.24 57.44 32.36L57.44 32.36L57.44 15.60L59.44 15.60L59.44 31.96Q59.44 36.20 61.52 38.38Q63.60 40.56 67.64 40.56L67.64 40.56Q71.64 40.56 73.72 38.38Q75.80 36.20 75.80 31.96L75.80 31.96L75.80 15.60L77.80 15.60Z M103.04 42L99.72 33.72L87.08 33.72L83.80 42L81.68 42L92.24 15.60L94.60 15.60L105.16 42L103.04 42ZM87.84 31.88L99 31.88L94.40 20.36L93.44 17.56L93.40 17.56L92.44 20.28L87.84 31.88Z M126.68 47.80Q128.04 47.80 129.22 47.42Q130.40 47.04 131.12 46.32L131.12 46.32L131.84 48.16Q131 48.92 129.58 49.36Q128.16 49.80 126.64 49.80L126.64 49.80Q123.48 49.80 121.40 47.96Q119.32 46.12 119.08 42.36L119.08 42.36Q115.60 42.20 113.04 40.50Q110.48 38.80 109.10 35.80Q107.72 32.80 107.72 28.80L107.72 28.80Q107.72 24.64 109.20 21.58Q110.68 18.52 113.42 16.86Q116.16 15.20 119.88 15.20L119.88 15.20Q123.60 15.20 126.34 16.86Q129.08 18.52 130.56 21.58Q132.04 24.64 132.04 28.80L132.04 28.80Q132.04 32.76 130.68 35.74Q129.32 38.72 126.82 40.44Q124.32 42.16 120.88 42.36L120.88 42.36Q121.32 47.80 126.68 47.80L126.68 47.80ZM109.84 28.80Q109.84 32.40 111.06 35.06Q112.28 37.72 114.54 39.14Q116.80 40.56 119.88 40.56L119.88 40.56Q122.96 40.56 125.24 39.14Q127.52 37.72 128.74 35.06Q129.96 32.40 129.96 28.80L129.96 28.80Q129.96 25.20 128.74 22.54Q127.52 19.88 125.24 18.46Q122.96 17.04 119.88 17.04L119.88 17.04Q116.80 17.04 114.54 18.46Q112.28 19.88 111.06 22.54Q109.84 25.20 109.84 28.80L109.84 28.80Z M158.72 15.60L158.72 32.36Q158.72 37.24 156.08 39.82Q153.44 42.40 148.56 42.40L148.56 42.40Q143.68 42.40 141.02 39.82Q138.36 37.24 138.36 32.36L138.36 32.36L138.36 15.60L140.36 15.60L140.36 31.96Q140.36 36.20 142.44 38.38Q144.52 40.56 148.56 40.56L148.56 40.56Q152.56 40.56 154.64 38.38Q156.72 36.20 156.72 31.96L156.72 31.96L156.72 15.60L158.72 15.60Z M168.72 40.16L185.40 40.16L185.40 42L166.72 42L166.72 15.60L184.76 15.60L184.76 17.44L168.72 17.44L168.72 27.64L181.40 27.64L181.40 29.52L168.72 29.52L168.72 40.16Z M193.20 40.16L209.88 40.16L209.88 42L191.20 42L191.20 15.60L209.24 15.60L209.24 17.44L193.20 17.44L193.20 27.64L205.88 27.64L205.88 29.52L193.20 29.52L193.20 40.16Z M235.96 15.60L235.96 42L233.48 42L219.48 21.28L217.52 17.76L217.48 17.76L217.60 21.08L217.60 42L215.68 42L215.68 15.60L218.20 15.60L232.16 36.28L234.16 39.84L234.08 36.52L234.08 15.60L235.96 15.60Z"/></g>
</svg>
</g><g opacity="1" transform="rotate(0 124.4698 283.504)">
<svg width="368.4605" height="3" x="124.4698" y="283.504" version="1.1" preserveAspectRatio="none" viewBox="0 0 368.4605 3">
  <defs><rect x="0" y="0" width="368.4605" height="3" rx="0px" ry="0px" id="id-tBXipXk0b1701648233563"></rect></defs><use class="icon3 shapeStroke-str" style="stroke-width:0;" xlink:href="#id-tBXipXk0b1701648233563"></use>
</svg>
</g><g opacity="1" transform="rotate(0 124.4698 301.504)">
<svg width="344.8916" height="20" x="124.4698" y="301.504" version="1.1" preserveAspectRatio="none" viewBox="4.16 -31 676.68 39.24">
  <g transform="matrix(1 0 0 1 0 0)" class="text"><path id="id-D-YM9nyY436" d="M11.92-28.92Q16.64-28.92 19.30-26.56Q21.96-24.20 21.96-19.96L21.96-19.96Q21.96-17.52 20.98-15.40Q20-13.28 17.82-11.96Q15.64-10.64 12.32-10.64L12.32-10.64L8.04-10.64L8.04 0L4.16 0L4.16-28.92L11.92-28.92ZM12.32-14.40Q14.40-14.40 15.70-15.28Q17-16.16 17.56-17.42Q18.12-18.68 18.12-19.88L18.12-19.88Q18.12-21.96 16.76-23.58Q15.40-25.20 12.52-25.20L12.52-25.20L8.04-25.20L8.04-14.40L12.32-14.40Z M31.44-12.64Q32.08-14 33.26-15.04Q34.44-16.08 35.76-16.64Q37.08-17.20 38.08-17.24L38.08-17.24L37.92-13.52Q36.12-13.60 34.66-12.80Q33.20-12 32.38-10.58Q31.56-9.16 31.56-7.56L31.56-7.56L31.56 0L27.84 0L27.84-16.56L31.16-16.56L31.44-12.64Z M50.72-2.80Q52.80-2.80 54.76-4.24L54.76-4.24L56.48-1.48Q55.16-0.60 53.62-0.10Q52.08 0.40 50.64 0.40L50.64 0.40Q47.88 0.40 45.82-0.74Q43.76-1.88 42.64-3.88Q41.52-5.88 41.52-8.40L41.52-8.40Q41.52-10.84 42.74-12.86Q43.96-14.88 46.08-16.06Q48.20-17.24 50.72-17.24L50.72-17.24Q53.96-17.24 56.14-15.34Q58.32-13.44 59.12-10.04L59.12-10.04L46-5.44Q46.72-4.20 47.94-3.50Q49.16-2.80 50.72-2.80L50.72-2.80ZM50.44-14.28Q48.16-14.28 46.68-12.68Q45.20-11.08 45.20-8.60L45.20-8.60Q45.20-8 45.24-7.68L45.24-7.68L54.88-11.24Q54.28-12.60 53.18-13.44Q52.08-14.28 50.44-14.28L50.44-14.28Z M78-1.56Q76.88-0.64 75.34-0.12Q73.80 0.40 72.20 0.40L72.20 0.40Q69.52 0.40 67.46-0.68Q65.40-1.76 64.26-3.74Q63.12-5.72 63.12-8.32L63.12-8.32Q63.12-10.88 64.32-12.86Q65.52-14.84 67.52-15.92Q69.52-17 71.84-17L71.84-17Q75.64-17 78.12-14.92L78.12-14.92L76.24-12.48Q75.44-13.08 74.40-13.50Q73.36-13.92 72.16-13.92L72.16-13.92Q70.68-13.92 69.46-13.18Q68.24-12.44 67.54-11.16Q66.84-9.88 66.84-8.32L66.84-8.32Q66.84-6.76 67.58-5.48Q68.32-4.20 69.60-3.44Q70.88-2.68 72.52-2.68L72.52-2.68Q74.56-2.68 76.08-3.88L76.08-3.88L78-1.56Z M83.60-16.56L87.32-16.56L87.32 0L83.60 0L83.60-16.56ZM83.32-22.52Q83.32-23.40 84-24Q84.68-24.60 85.56-24.60L85.56-24.60Q86.44-24.60 87.10-24Q87.76-23.40 87.76-22.52L87.76-22.52Q87.76-21.64 87.10-21.04Q86.44-20.44 85.56-20.44L85.56-20.44Q84.68-20.44 84-21.04Q83.32-21.64 83.32-22.52L83.32-22.52Z M99.28 0.36Q97.44 0.36 95.78-0.28Q94.12-0.92 93.08-2.16L93.08-2.16L94.68-4.32Q95.68-3.36 96.78-2.84Q97.88-2.32 98.96-2.32L98.96-2.32Q100.28-2.32 101.12-2.84Q101.96-3.36 101.96-4.44L101.96-4.44Q101.96-5.28 101.44-5.80Q100.92-6.32 100.26-6.56Q99.60-6.80 98.04-7.28L98.04-7.28Q93.80-8.64 93.80-12.12L93.80-12.12Q93.80-14.20 95.34-15.68Q96.88-17.16 99.64-17.16L99.64-17.16Q101.40-17.16 102.76-16.72Q104.12-16.28 105.28-15.32L105.28-15.32L103.80-13.04Q103.16-13.72 102.18-14.12Q101.20-14.52 100.32-14.56L100.32-14.56Q99.20-14.56 98.40-14.02Q97.60-13.48 97.60-12.56L97.60-12.56Q97.60-11.80 98.12-11.30Q98.64-10.80 99.20-10.58Q99.76-10.36 101.40-9.84L101.40-9.84Q103.44-9.16 104.58-8.08Q105.72-7 105.72-5.16L105.72-5.16Q105.72-2.76 104.04-1.20Q102.36 0.36 99.28 0.36L99.28 0.36Z M111.72-16.56L115.44-16.56L115.44 0L111.72 0L111.72-16.56ZM111.44-22.52Q111.44-23.40 112.12-24Q112.80-24.60 113.68-24.60L113.68-24.60Q114.56-24.60 115.22-24Q115.88-23.40 115.88-22.52L115.88-22.52Q115.88-21.64 115.22-21.04Q114.56-20.44 113.68-20.44L113.68-20.44Q112.80-20.44 112.12-21.04Q111.44-21.64 111.44-22.52L111.44-22.52Z M121.28-8.44Q121.28-10.88 122.46-12.90Q123.64-14.92 125.74-16.08Q127.84-17.24 130.48-17.24L130.48-17.24Q133.12-17.24 135.18-16.08Q137.24-14.92 138.38-12.92Q139.52-10.92 139.52-8.44L139.52-8.44Q139.52-5.96 138.38-3.94Q137.24-1.92 135.16-0.76Q133.08 0.40 130.40 0.40L130.40 0.40Q127.80 0.40 125.72-0.70Q123.64-1.80 122.46-3.80Q121.28-5.80 121.28-8.44L121.28-8.44ZM125.04-8.40Q125.04-6.84 125.74-5.52Q126.44-4.20 127.66-3.44Q128.88-2.68 130.36-2.68L130.36-2.68Q132.68-2.68 134.20-4.32Q135.72-5.96 135.72-8.40L135.72-8.40Q135.72-10.84 134.20-12.50Q132.68-14.16 130.36-14.16L130.36-14.16Q128.84-14.16 127.64-13.38Q126.44-12.60 125.74-11.28Q125.04-9.96 125.04-8.40L125.04-8.40Z M155.60-17.20Q157.92-17.20 159.44-15.82Q160.96-14.44 161-12.24L161-12.24L161 0L157.24 0L157.24-10.96Q157.16-12.36 156.40-13.16Q155.64-13.96 154.12-14L154.12-14Q151.92-14 150.48-12.24Q149.04-10.48 149.04-7.76L149.04-7.76L149.04 0L145.32 0L145.32-16.56L148.68-16.56L148.92-13.36Q149.80-15.16 151.56-16.18Q153.32-17.20 155.60-17.20L155.60-17.20Z M195.24-16.56L198.68-16.56L198.68 0L194.96 0L194.96-2.72Q194.08-1.56 192.40-0.58Q190.72 0.40 188.60 0.40L188.60 0.40Q186.24 0.40 184.34-0.62Q182.44-1.64 181.34-3.60Q180.24-5.56 180.24-8.28L180.24-8.28Q180.24-11 181.38-13.02Q182.52-15.04 184.46-16.14Q186.40-17.24 188.76-17.24L188.76-17.24Q190.88-17.24 192.44-16.32Q194.00-15.40 194.96-13.92L194.96-13.92L195.24-16.56ZM189.60-2.68Q191.64-2.68 193.10-3.82Q194.56-4.96 194.96-6.92L194.96-6.92L194.96-10.20Q194.48-11.96 192.96-13.06Q191.44-14.16 189.48-14.16L189.48-14.16Q188.00-14.16 186.74-13.44Q185.48-12.72 184.74-11.42Q184.00-10.12 184.00-8.48L184.00-8.48Q184.00-6.88 184.76-5.56Q185.52-4.24 186.80-3.46Q188.08-2.68 189.60-2.68L189.60-2.68Z M216.24-17.20Q218.56-17.20 220.08-15.82Q221.60-14.44 221.64-12.24L221.64-12.24L221.64 0L217.88 0L217.88-10.96Q217.80-12.36 217.04-13.16Q216.28-13.96 214.76-14L214.76-14Q212.56-14 211.12-12.24Q209.68-10.48 209.68-7.76L209.68-7.76L209.68 0L205.96 0L205.96-16.56L209.32-16.56L209.56-13.36Q210.44-15.16 212.20-16.18Q213.96-17.20 216.24-17.20L216.24-17.20Z M242.44-31L246.16-31L246.16 0L242.40 0L242.40-2.60Q241.20-1.20 239.46-0.40Q237.72 0.40 235.64 0.40L235.64 0.40Q233.32 0.40 231.44-0.72Q229.56-1.84 228.50-3.86Q227.44-5.88 227.44-8.52L227.44-8.52Q227.44-11.20 228.56-13.18Q229.68-15.16 231.64-16.20Q233.60-17.24 236.08-17.24L236.08-17.24Q237.96-17.24 239.70-16.46Q241.44-15.68 242.44-14.32L242.44-14.32L242.44-31ZM236.80-2.80Q238.96-2.80 240.46-3.96Q241.96-5.12 242.40-7.08L242.40-7.08L242.40-10.20Q241.92-12 240.36-13.14Q238.80-14.28 236.80-14.28L236.80-14.28Q235.28-14.28 234.00-13.54Q232.72-12.80 231.96-11.50Q231.20-10.20 231.20-8.56L231.20-8.56Q231.20-6.96 231.96-5.64Q232.72-4.32 234.00-3.56Q235.28-2.80 236.80-2.80L236.80-2.80Z M277.32-17.24Q279.64-17.24 281.52-16.12Q283.40-15 284.48-12.98Q285.56-10.96 285.56-8.32L285.56-8.32Q285.56-5.72 284.40-3.74Q283.24-1.76 281.20-0.68Q279.16 0.40 276.64 0.40L276.64 0.40Q274.84 0.40 273.20-0.38Q271.56-1.16 270.56-2.48L270.56-2.48L270.56 7.96L266.84 7.96L266.84-16.84L270.08-16.84L270.40-14.04Q271.68-15.48 273.46-16.36Q275.24-17.24 277.32-17.24L277.32-17.24ZM275.92-2.60Q277.48-2.60 278.82-3.34Q280.16-4.08 280.96-5.38Q281.76-6.68 281.76-8.28L281.76-8.28Q281.76-9.92 281.02-11.24Q280.28-12.56 279.00-13.32Q277.72-14.08 276.16-14.08L276.16-14.08Q274.04-14.08 272.54-12.90Q271.04-11.72 270.56-9.72L270.56-9.72L270.56-6.96Q270.88-5.04 272.38-3.82Q273.88-2.60 275.92-2.60L275.92-2.60Z M304.92-16.56L308.36-16.56L308.36 0L304.64 0L304.64-2.72Q303.76-1.56 302.08-0.58Q300.40 0.40 298.28 0.40L298.28 0.40Q295.92 0.40 294.02-0.62Q292.12-1.64 291.02-3.60Q289.92-5.56 289.92-8.28L289.92-8.28Q289.92-11 291.06-13.02Q292.20-15.04 294.14-16.14Q296.08-17.24 298.44-17.24L298.44-17.24Q300.56-17.24 302.12-16.32Q303.68-15.40 304.64-13.92L304.64-13.92L304.92-16.56ZM299.28-2.68Q301.32-2.68 302.78-3.82Q304.24-4.96 304.64-6.92L304.64-6.92L304.64-10.20Q304.16-11.96 302.64-13.06Q301.12-14.16 299.16-14.16L299.16-14.16Q297.68-14.16 296.42-13.44Q295.16-12.72 294.42-11.42Q293.68-10.12 293.68-8.48L293.68-8.48Q293.68-6.88 294.44-5.56Q295.20-4.24 296.48-3.46Q297.76-2.68 299.28-2.68L299.28-2.68Z M320.32 0.36Q318.48 0.36 316.82-0.28Q315.16-0.92 314.12-2.16L314.12-2.16L315.72-4.32Q316.72-3.36 317.82-2.84Q318.92-2.32 320.00-2.32L320.00-2.32Q321.32-2.32 322.16-2.84Q323.00-3.36 323.00-4.44L323.00-4.44Q323.00-5.28 322.48-5.80Q321.96-6.32 321.30-6.56Q320.64-6.80 319.08-7.28L319.08-7.28Q314.84-8.64 314.84-12.12L314.84-12.12Q314.84-14.20 316.38-15.68Q317.92-17.16 320.68-17.16L320.68-17.16Q322.44-17.16 323.80-16.72Q325.16-16.28 326.32-15.32L326.32-15.32L324.84-13.04Q324.20-13.72 323.22-14.12Q322.24-14.52 321.36-14.56L321.36-14.56Q320.24-14.56 319.44-14.02Q318.64-13.48 318.64-12.56L318.64-12.56Q318.64-11.80 319.16-11.30Q319.68-10.80 320.24-10.58Q320.80-10.36 322.44-9.84L322.44-9.84Q324.48-9.16 325.62-8.08Q326.76-7 326.76-5.16L326.76-5.16Q326.76-2.76 325.08-1.20Q323.40 0.36 320.32 0.36L320.32 0.36Z M337.44 0.36Q335.60 0.36 333.94-0.28Q332.28-0.92 331.24-2.16L331.24-2.16L332.84-4.32Q333.84-3.36 334.94-2.84Q336.04-2.32 337.12-2.32L337.12-2.32Q338.44-2.32 339.28-2.84Q340.12-3.36 340.12-4.44L340.12-4.44Q340.12-5.28 339.60-5.80Q339.08-6.32 338.42-6.56Q337.76-6.80 336.20-7.28L336.20-7.28Q331.96-8.64 331.96-12.12L331.96-12.12Q331.96-14.20 333.50-15.68Q335.04-17.16 337.80-17.16L337.80-17.16Q339.56-17.16 340.92-16.72Q342.28-16.28 343.44-15.32L343.44-15.32L341.96-13.04Q341.32-13.72 340.34-14.12Q339.36-14.52 338.48-14.56L338.48-14.56Q337.36-14.56 336.56-14.02Q335.76-13.48 335.76-12.56L335.76-12.56Q335.76-11.80 336.28-11.30Q336.80-10.80 337.36-10.58Q337.92-10.36 339.56-9.84L339.56-9.84Q341.60-9.16 342.74-8.08Q343.88-7 343.88-5.16L343.88-5.16Q343.88-2.76 342.20-1.20Q340.52 0.36 337.44 0.36L337.44 0.36Z M349.88-16.56L353.60-16.56L353.60 0L349.88 0L349.88-16.56ZM349.60-22.52Q349.60-23.40 350.28-24Q350.96-24.60 351.84-24.60L351.84-24.60Q352.72-24.60 353.38-24Q354.04-23.40 354.04-22.52L354.04-22.52Q354.04-21.64 353.38-21.04Q352.72-20.44 351.84-20.44L351.84-20.44Q350.96-20.44 350.28-21.04Q349.60-21.64 349.60-22.52L349.60-22.52Z M359.44-8.44Q359.44-10.88 360.62-12.90Q361.80-14.92 363.90-16.08Q366.00-17.24 368.64-17.24L368.64-17.24Q371.28-17.24 373.34-16.08Q375.40-14.92 376.54-12.92Q377.68-10.92 377.68-8.44L377.68-8.44Q377.68-5.96 376.54-3.94Q375.40-1.92 373.32-0.76Q371.24 0.40 368.56 0.40L368.56 0.40Q365.96 0.40 363.88-0.70Q361.80-1.80 360.62-3.80Q359.44-5.80 359.44-8.44L359.44-8.44ZM363.20-8.40Q363.20-6.84 363.90-5.52Q364.60-4.20 365.82-3.44Q367.04-2.68 368.52-2.68L368.52-2.68Q370.84-2.68 372.36-4.32Q373.88-5.96 373.88-8.40L373.88-8.40Q373.88-10.84 372.36-12.50Q370.84-14.16 368.52-14.16L368.52-14.16Q367.00-14.16 365.80-13.38Q364.60-12.60 363.90-11.28Q363.20-9.96 363.20-8.40L363.20-8.40Z M393.76-17.20Q396.08-17.20 397.60-15.82Q399.12-14.44 399.16-12.24L399.16-12.24L399.16 0L395.40 0L395.40-10.96Q395.32-12.36 394.56-13.16Q393.80-13.96 392.28-14L392.28-14Q390.08-14 388.64-12.24Q387.20-10.48 387.20-7.76L387.20-7.76L387.20 0L383.48 0L383.48-16.56L386.84-16.56L387.08-13.36Q387.96-15.16 389.72-16.18Q391.48-17.20 393.76-17.20L393.76-17.20Z M419.84-16.56L423.56-16.56L423.56 0L419.84 0L419.84-16.56ZM419.56-22.52Q419.56-23.40 420.24-24Q420.92-24.60 421.80-24.60L421.80-24.60Q422.68-24.60 423.34-24Q424.00-23.40 424.00-22.52L424.00-22.52Q424.00-21.64 423.34-21.04Q422.68-20.44 421.80-20.44L421.80-20.44Q420.92-20.44 420.24-21.04Q419.56-21.64 419.56-22.52L419.56-22.52Z M441.12-17.20Q443.44-17.20 444.96-15.82Q446.48-14.44 446.52-12.24L446.52-12.24L446.52 0L442.76 0L442.76-10.96Q442.68-12.36 441.92-13.16Q441.16-13.96 439.64-14L439.64-14Q437.44-14 436.00-12.24Q434.56-10.48 434.56-7.76L434.56-7.76L434.56 0L430.84 0L430.84-16.56L434.20-16.56L434.44-13.36Q435.32-15.16 437.08-16.18Q438.84-17.20 441.12-17.20L441.12-17.20Z M474.96-2.80Q477.04-2.80 479.00-4.24L479.00-4.24L480.72-1.48Q479.40-0.60 477.86-0.10Q476.32 0.40 474.88 0.40L474.88 0.40Q472.12 0.40 470.06-0.74Q468.00-1.88 466.88-3.88Q465.76-5.88 465.76-8.40L465.76-8.40Q465.76-10.84 466.98-12.86Q468.20-14.88 470.32-16.06Q472.44-17.24 474.96-17.24L474.96-17.24Q478.20-17.24 480.38-15.34Q482.56-13.44 483.36-10.04L483.36-10.04L470.24-5.44Q470.96-4.20 472.18-3.50Q473.40-2.80 474.96-2.80L474.96-2.80ZM474.68-14.28Q472.40-14.28 470.92-12.68Q469.44-11.08 469.44-8.60L469.44-8.60Q469.44-8 469.48-7.68L469.48-7.68L479.12-11.24Q478.52-12.60 477.42-13.44Q476.32-14.28 474.68-14.28L474.68-14.28Z M499.08-17.20Q501.40-17.20 502.92-15.82Q504.44-14.44 504.48-12.24L504.48-12.24L504.48 0L500.72 0L500.72-10.96Q500.64-12.36 499.88-13.16Q499.12-13.96 497.60-14L497.60-14Q495.40-14 493.96-12.24Q492.52-10.48 492.52-7.76L492.52-7.76L492.52 0L488.80 0L488.80-16.56L492.16-16.56L492.40-13.36Q493.28-15.16 495.04-16.18Q496.80-17.20 499.08-17.20L499.08-17.20Z M525.80-16.56L529.20-16.56L529.20 0.12Q529.20 2.40 528.04 4.24Q526.88 6.08 524.74 7.16Q522.60 8.24 519.72 8.24L519.72 8.24Q517.20 8.24 515.38 7.40Q513.56 6.56 511.72 4.92L511.72 4.92L513.92 2.36Q515.28 3.64 516.64 4.30Q518.00 4.96 519.64 4.96L519.64 4.96Q522.40 4.96 523.90 3.64Q525.40 2.32 525.44 0.08L525.44 0.08L525.48-3.04Q524.56-1.48 522.78-0.54Q521.00 0.40 518.68 0.40L518.68 0.40Q516.40 0.40 514.48-0.76Q512.56-1.92 511.42-3.92Q510.28-5.92 510.28-8.36L510.28-8.36Q510.28-10.88 511.46-12.90Q512.64-14.92 514.64-16.08Q516.64-17.24 518.92-17.24L518.92-17.24Q521.04-17.24 522.84-16.40Q524.64-15.56 525.52-14.24L525.52-14.24L525.80-16.56ZM519.76-2.68Q521.88-2.68 523.44-3.84Q525.00-5 525.48-6.88L525.48-6.88L525.48-10.16Q524.92-11.96 523.36-13.06Q521.80-14.16 519.76-14.16L519.76-14.16Q517.32-14.16 515.68-12.56Q514.04-10.96 514.04-8.48L514.04-8.48Q514.04-6.88 514.80-5.56Q515.56-4.24 516.88-3.46Q518.20-2.68 519.76-2.68L519.76-2.68Z M536.48-16.56L540.20-16.56L540.20 0L536.48 0L536.48-16.56ZM536.20-22.52Q536.20-23.40 536.88-24Q537.56-24.60 538.44-24.60L538.44-24.60Q539.32-24.60 539.98-24Q540.64-23.40 540.64-22.52L540.64-22.52Q540.64-21.64 539.98-21.04Q539.32-20.44 538.44-20.44L538.44-20.44Q537.56-20.44 536.88-21.04Q536.20-21.64 536.20-22.52L536.20-22.52Z M557.76-17.20Q560.08-17.20 561.60-15.82Q563.12-14.44 563.16-12.24L563.16-12.24L563.16 0L559.40 0L559.40-10.96Q559.32-12.36 558.56-13.16Q557.80-13.96 556.28-14L556.28-14Q554.08-14 552.64-12.24Q551.20-10.48 551.20-7.76L551.20-7.76L551.20 0L547.48 0L547.48-16.56L550.84-16.56L551.08-13.36Q551.96-15.16 553.72-16.18Q555.48-17.20 557.76-17.20L557.76-17.20Z M578.16-2.80Q580.24-2.80 582.20-4.24L582.20-4.24L583.92-1.48Q582.60-0.60 581.06-0.10Q579.52 0.40 578.08 0.40L578.08 0.40Q575.32 0.40 573.26-0.74Q571.20-1.88 570.08-3.88Q568.96-5.88 568.96-8.40L568.96-8.40Q568.96-10.84 570.18-12.86Q571.40-14.88 573.52-16.06Q575.64-17.24 578.16-17.24L578.16-17.24Q581.40-17.24 583.58-15.34Q585.76-13.44 586.56-10.04L586.56-10.04L573.44-5.44Q574.16-4.20 575.38-3.50Q576.60-2.80 578.16-2.80L578.16-2.80ZM577.88-14.28Q575.60-14.28 574.12-12.68Q572.64-11.08 572.64-8.60L572.64-8.60Q572.64-8 572.68-7.68L572.68-7.68L582.32-11.24Q581.72-12.60 580.62-13.44Q579.52-14.28 577.88-14.28L577.88-14.28Z M599.76-2.80Q601.84-2.80 603.80-4.24L603.80-4.24L605.52-1.48Q604.20-0.60 602.66-0.10Q601.12 0.40 599.68 0.40L599.68 0.40Q596.92 0.40 594.86-0.74Q592.80-1.88 591.68-3.88Q590.56-5.88 590.56-8.40L590.56-8.40Q590.56-10.84 591.78-12.86Q593-14.88 595.12-16.06Q597.24-17.24 599.76-17.24L599.76-17.24Q603-17.24 605.18-15.34Q607.36-13.44 608.16-10.04L608.16-10.04L595.04-5.44Q595.76-4.20 596.98-3.50Q598.20-2.80 599.76-2.80L599.76-2.80ZM599.48-14.28Q597.20-14.28 595.72-12.68Q594.24-11.08 594.24-8.60L594.24-8.60Q594.24-8 594.28-7.68L594.28-7.68L603.92-11.24Q603.32-12.60 602.22-13.44Q601.12-14.28 599.48-14.28L599.48-14.28Z M617.20-12.64Q617.84-14 619.02-15.04Q620.20-16.08 621.52-16.64Q622.84-17.20 623.84-17.24L623.84-17.24L623.68-13.52Q621.88-13.60 620.42-12.80Q618.96-12 618.14-10.58Q617.32-9.16 617.32-7.56L617.32-7.56L617.32 0L613.60 0L613.60-16.56L616.92-16.56L617.20-12.64Z M629.44-16.56L633.16-16.56L633.16 0L629.44 0L629.44-16.56ZM629.16-22.52Q629.16-23.40 629.84-24Q630.52-24.60 631.40-24.60L631.40-24.60Q632.28-24.60 632.94-24Q633.60-23.40 633.60-22.52L633.60-22.52Q633.60-21.64 632.94-21.04Q632.28-20.44 631.40-20.44L631.40-20.44Q630.52-20.44 629.84-21.04Q629.16-21.64 629.16-22.52L629.16-22.52Z M650.72-17.20Q653.04-17.20 654.56-15.82Q656.08-14.44 656.12-12.24L656.12-12.24L656.12 0L652.36 0L652.36-10.96Q652.28-12.36 651.52-13.16Q650.76-13.96 649.24-14L649.24-14Q647.04-14 645.60-12.24Q644.16-10.48 644.16-7.76L644.16-7.76L644.16 0L640.44 0L640.44-16.56L643.80-16.56L644.04-13.36Q644.92-15.16 646.68-16.18Q648.44-17.20 650.72-17.20L650.72-17.20Z M677.44-16.56L680.84-16.56L680.84 0.12Q680.84 2.40 679.68 4.24Q678.52 6.08 676.38 7.16Q674.24 8.24 671.36 8.24L671.36 8.24Q668.84 8.24 667.02 7.40Q665.20 6.56 663.36 4.92L663.36 4.92L665.56 2.36Q666.92 3.64 668.28 4.30Q669.64 4.96 671.28 4.96L671.28 4.96Q674.04 4.96 675.54 3.64Q677.04 2.32 677.08 0.08L677.08 0.08L677.12-3.04Q676.20-1.48 674.42-0.54Q672.64 0.40 670.32 0.40L670.32 0.40Q668.04 0.40 666.12-0.76Q664.20-1.92 663.06-3.92Q661.92-5.92 661.92-8.36L661.92-8.36Q661.92-10.88 663.10-12.90Q664.28-14.92 666.28-16.08Q668.28-17.24 670.56-17.24L670.56-17.24Q672.68-17.24 674.48-16.40Q676.28-15.56 677.16-14.24L677.16-14.24L677.44-16.56ZM671.40-2.68Q673.52-2.68 675.08-3.84Q676.64-5 677.12-6.88L677.12-6.88L677.12-10.16Q676.56-11.96 675.00-13.06Q673.44-14.16 671.40-14.16L671.40-14.16Q668.96-14.16 667.32-12.56Q665.68-10.96 665.68-8.48L665.68-8.48Q665.68-6.88 666.44-5.56Q667.20-4.24 668.52-3.46Q669.84-2.68 671.40-2.68L671.40-2.68Z"/></g>
</svg>
</g></svg></svg>