<svg version="1.1" preserveAspectRatio="none" xmlns="http://www.w3.org/2000/svg" width="500" height="500" viewBox="0 0 500 500"><rect width="100%" height="100%" fill="#FFFFFF" fill-opacity="1"/><svg viewBox="24.1123 54.0585 398.0467 215.2373" width="333" height="180.06435149443521" x="83.5px" y="159.9678px" xmlns="http://www.w3.org/2000/svg" xmlns:xlink="http://www.w3.org/1999/xlink" preserveAspectRatio="none"><defs></defs><style>.companyName {fill:#1C1C1C;fill-opacity:1;}.icon1 {fill:#1C1C1C;fill-opacity:1;}.icon2 {fill:#BAAE57;fill-opacity:1;}.icon3 {fill:#E192BB;fill-opacity:1;}.icon3-str {stroke:#E192BB;stroke-opacity:1;}.text {fill:#1C1C1C;fill-opacity:1;}</style><g opacity="1" transform="rotate(0 24.1123 249.2958)">
<svg width="398.0467" height="20" x="24.1123" y="249.2958" version="1.1" preserveAspectRatio="none" viewBox="4.32 -29.2 752.1999999999999 37.8">
  <g transform="matrix(1 0 0 1 0 0)" class="text"><path id="id-6izo4zJp36" d="M13.64-26.40Q17.64-26.40 20.08-24.22Q22.52-22.04 22.52-18.36L22.52-18.36Q22.52-14.68 20.08-12.50Q17.64-10.32 13.64-10.32L13.64-10.32L7.52-10.32L7.52 0L4.32 0L4.32-26.40L13.64-26.40ZM13.16-13.32Q16.24-13.32 17.70-14.58Q19.16-15.84 19.16-18.36L19.16-18.36Q19.16-20.88 17.70-22.14Q16.24-23.40 13.16-23.40L13.16-23.40L7.52-23.40L7.52-13.32L13.16-13.32Z M38.76-20.40Q40.20-20.40 40.96-20L40.96-20L40.32-16.88Q39.36-17.40 37.80-17.40L37.80-17.40Q36.52-17.40 35.30-16.66Q34.08-15.92 33.30-14.42Q32.52-12.92 32.52-10.80L32.52-10.80L32.52 0L29.32 0L29.32-20L31.92-20L32.36-16.72Q34.04-20.40 38.76-20.40L38.76-20.40Z M63.36-11.04Q63.36-9.92 63.20-8.80L63.20-8.80L48.12-8.80Q48.40-5.76 50.14-4.08Q51.88-2.40 54.64-2.40L54.64-2.40Q56.84-2.40 58.30-3.16Q59.76-3.92 60.28-5.36L60.28-5.36L62.96-3.96Q61.76-1.84 59.76-0.72Q57.76 0.40 54.64 0.40L54.64 0.40Q50.12 0.40 47.54-2.36Q44.96-5.12 44.96-10L44.96-10Q44.96-14.88 47.42-17.64Q49.88-20.40 54.40-20.40L54.40-20.40Q57.20-20.40 59.24-19.16Q61.28-17.92 62.32-15.80Q63.36-13.68 63.36-11.04L63.36-11.04ZM54.40-17.60Q51.76-17.60 50.14-16.04Q48.52-14.48 48.16-11.64L48.16-11.64L60.28-11.64Q59.96-14.44 58.44-16.02Q56.92-17.60 54.40-17.60L54.40-17.60Z M79.08-20.40Q82.08-20.40 84.14-19.02Q86.20-17.64 87.36-15.08L87.36-15.08L84.32-13.64Q83.04-17.60 79-17.60L79-17.60Q76-17.60 74.30-15.58Q72.60-13.56 72.60-10L72.60-10Q72.60-6.44 74.30-4.42Q76-2.40 79-2.40L79-2.40Q81.32-2.40 82.74-3.46Q84.16-4.52 84.60-6.52L84.60-6.52L87.56-5.48Q86.52-2.68 84.36-1.14Q82.20 0.40 79.08 0.40L79.08 0.40Q74.56 0.40 71.98-2.36Q69.40-5.12 69.40-10L69.40-10Q69.40-14.88 71.98-17.64Q74.56-20.40 79.08-20.40L79.08-20.40Z M96-23.84Q94.92-23.84 94.26-24.50Q93.60-25.16 93.60-26.24L93.60-26.24Q93.60-27.32 94.26-27.98Q94.92-28.64 96-28.64L96-28.64Q97.08-28.64 97.74-27.98Q98.40-27.32 98.40-26.24L98.40-26.24Q98.40-25.16 97.74-24.50Q97.08-23.84 96-23.84L96-23.84ZM97.60-20L97.60 0L94.40 0L94.40-20L97.60-20Z M113.04 0.40Q110.16 0.40 107.84-0.74Q105.52-1.88 104.44-4.12L104.44-4.12L107.04-5.92Q107.72-4.16 109.40-3.28Q111.08-2.40 113.36-2.40L113.36-2.40Q115.72-2.40 116.96-3.24Q118.20-4.08 118.20-5.36L118.20-5.36Q118.20-6.52 117.04-7.22Q115.88-7.92 112.96-8.44L112.96-8.44Q110.08-8.96 108.40-9.70Q106.72-10.44 105.96-11.58Q105.20-12.72 105.20-14.40L105.20-14.40Q105.20-16.04 106.16-17.40Q107.12-18.76 108.92-19.58Q110.72-20.40 113.08-20.40L113.08-20.40Q116.28-20.40 118.22-19.22Q120.16-18.04 121.00-15.60L121.00-15.60L118.28-14Q117.64-15.92 116.34-16.76Q115.04-17.60 113.08-17.60L113.08-17.60Q111.12-17.60 109.76-16.72Q108.40-15.84 108.40-14.68L108.40-14.68Q108.40-13.36 109.58-12.64Q110.76-11.92 113.80-11.40L113.80-11.40Q117.96-10.72 119.68-9.36Q121.40-8 121.40-5.52L121.40-5.52Q121.40-3.80 120.38-2.46Q119.36-1.12 117.46-0.36Q115.56 0.40 113.04 0.40L113.04 0.40Z M130.12-23.84Q129.04-23.84 128.38-24.50Q127.72-25.16 127.72-26.24L127.72-26.24Q127.72-27.32 128.38-27.98Q129.04-28.64 130.12-28.64L130.12-28.64Q131.20-28.64 131.86-27.98Q132.52-27.32 132.52-26.24L132.52-26.24Q132.52-25.16 131.86-24.50Q131.20-23.84 130.12-23.84L130.12-23.84ZM131.72-20L131.72 0L128.52 0L128.52-20L131.72-20Z M148.80-20.40Q153.32-20.40 155.90-17.64Q158.48-14.88 158.48-10L158.48-10Q158.48-5.12 155.90-2.36Q153.32 0.40 148.80 0.40L148.80 0.40Q144.28 0.40 141.70-2.36Q139.12-5.12 139.12-10L139.12-10Q139.12-14.88 141.70-17.64Q144.28-20.40 148.80-20.40L148.80-20.40ZM148.80-17.64Q145.76-17.64 144.04-15.60Q142.32-13.56 142.32-10L142.32-10Q142.32-6.44 144.04-4.40Q145.76-2.36 148.80-2.36L148.80-2.36Q151.84-2.36 153.56-4.40Q155.28-6.44 155.28-10L155.28-10Q155.28-13.56 153.56-15.60Q151.84-17.64 148.80-17.64L148.80-17.64Z M175.60-20.40Q179.00-20.40 181.20-18.44Q183.40-16.48 183.40-12.80L183.40-12.80L183.40 0L180.20 0L180.20-11.68Q180.20-14.80 178.86-16.20Q177.52-17.60 175.28-17.60L175.28-17.60Q173.68-17.60 172.28-16.90Q170.88-16.20 169.98-14.62Q169.08-13.04 169.08-10.64L169.08-10.64L169.08 0L165.88 0L165.88-20L168.68-20L168.88-16.88Q169.88-18.68 171.64-19.54Q173.40-20.40 175.60-20.40L175.60-20.40Z M223.08-2.32Q223.88-2.32 224.68-2.52L224.68-2.52L224.48 0Q223.36 0.40 222.08 0.40L222.08 0.40Q220.52 0.40 219.62-0.28Q218.72-0.96 218.48-2.56L218.48-2.56Q217.56-1.16 215.78-0.38Q214.00 0.40 212.04 0.40L212.04 0.40Q209.08 0.40 207.16-0.98Q205.24-2.36 205.24-4.96L205.24-4.96Q205.24-7.24 207.24-8.90Q209.24-10.56 213.04-11.20L213.04-11.20L218.36-12.08L218.36-13.20Q218.36-15.20 217.12-16.40Q215.88-17.60 213.68-17.60L213.68-17.60Q211.68-17.60 210.22-16.64Q208.76-15.68 207.96-13.80L207.96-13.80L205.60-15.52Q206.40-17.76 208.58-19.08Q210.76-20.40 213.68-20.40L213.68-20.40Q217.24-20.40 219.40-18.68Q221.56-16.96 221.56-13.60L221.56-13.60L221.56-3.76Q221.56-3.04 221.92-2.68Q222.28-2.32 223.08-2.32L223.08-2.32ZM212.20-2.40Q214.72-2.40 216.54-3.60Q218.36-4.80 218.36-6.72L218.36-6.72L218.36-9.48L213.88-8.64Q211.20-8.16 209.88-7.26Q208.56-6.36 208.56-4.96L208.56-4.96Q208.56-3.72 209.52-3.06Q210.48-2.40 212.20-2.40L212.20-2.40Z M240.24-20.40Q243.64-20.40 245.84-18.44Q248.04-16.48 248.04-12.80L248.04-12.80L248.04 0L244.84 0L244.84-11.68Q244.84-14.80 243.50-16.20Q242.16-17.60 239.92-17.60L239.92-17.60Q238.32-17.60 236.92-16.90Q235.52-16.20 234.62-14.62Q233.72-13.04 233.72-10.64L233.72-10.64L233.72 0L230.52 0L230.52-20L233.32-20L233.52-16.88Q234.52-18.68 236.28-19.54Q238.04-20.40 240.24-20.40L240.24-20.40Z M271.04-29.20L274.24-29.20L274.24 0L271.44 0L271.24-3.48Q270.36-1.72 268.54-0.66Q266.72 0.40 264.40 0.40L264.40 0.40Q260.20 0.40 257.74-2.38Q255.28-5.16 255.28-10L255.28-10Q255.28-14.84 257.74-17.62Q260.20-20.40 264.40-20.40L264.40-20.40Q266.60-20.40 268.34-19.44Q270.08-18.48 271.04-16.88L271.04-16.88L271.04-29.20ZM264.76-2.40Q267.64-2.40 269.34-4.40Q271.04-6.40 271.04-9.76L271.04-9.76L271.04-10.24Q271.04-13.60 269.34-15.60Q267.64-17.60 264.76-17.60L264.76-17.60Q261.84-17.60 260.16-15.54Q258.48-13.48 258.48-10L258.48-10Q258.48-6.52 260.16-4.46Q261.84-2.40 264.76-2.40L264.76-2.40Z M307.56-20.40Q311.76-20.40 314.22-17.62Q316.68-14.84 316.68-10L316.68-10Q316.68-5.16 314.22-2.38Q311.76 0.40 307.56 0.40L307.56 0.40Q305.36 0.40 303.62-0.56Q301.88-1.52 300.92-3.12L300.92-3.12L300.92 8.40L297.72 8.40L297.72-20L300.52-20L300.72-16.52Q301.60-18.28 303.42-19.34Q305.24-20.40 307.56-20.40L307.56-20.40ZM307.20-2.40Q310.12-2.40 311.80-4.46Q313.48-6.52 313.48-10L313.48-10Q313.48-13.48 311.80-15.54Q310.12-17.60 307.20-17.60L307.20-17.60Q304.32-17.60 302.62-15.60Q300.92-13.60 300.92-10.24L300.92-10.24L300.92-9.76Q300.92-6.40 302.62-4.40Q304.32-2.40 307.20-2.40L307.20-2.40Z M340.52-2.32Q341.32-2.32 342.12-2.52L342.12-2.52L341.92 0Q340.80 0.40 339.52 0.40L339.52 0.40Q337.96 0.40 337.06-0.28Q336.16-0.96 335.92-2.56L335.92-2.56Q335.00-1.16 333.22-0.38Q331.44 0.40 329.48 0.40L329.48 0.40Q326.52 0.40 324.60-0.98Q322.68-2.36 322.68-4.96L322.68-4.96Q322.68-7.24 324.68-8.90Q326.68-10.56 330.48-11.20L330.48-11.20L335.80-12.08L335.80-13.20Q335.80-15.20 334.56-16.40Q333.32-17.60 331.12-17.60L331.12-17.60Q329.12-17.60 327.66-16.64Q326.20-15.68 325.40-13.80L325.40-13.80L323.04-15.52Q323.84-17.76 326.02-19.08Q328.20-20.40 331.12-20.40L331.12-20.40Q334.68-20.40 336.84-18.68Q339.00-16.96 339.00-13.60L339.00-13.60L339.00-3.76Q339.00-3.04 339.36-2.68Q339.72-2.32 340.52-2.32L340.52-2.32ZM329.64-2.40Q332.16-2.40 333.98-3.60Q335.80-4.80 335.80-6.72L335.80-6.72L335.80-9.48L331.32-8.64Q328.64-8.16 327.32-7.26Q326.00-6.36 326.00-4.96L326.00-4.96Q326.00-3.72 326.96-3.06Q327.92-2.40 329.64-2.40L329.64-2.40Z M354.76 0.40Q351.88 0.40 349.56-0.74Q347.24-1.88 346.16-4.12L346.16-4.12L348.76-5.92Q349.44-4.16 351.12-3.28Q352.80-2.40 355.08-2.40L355.08-2.40Q357.44-2.40 358.68-3.24Q359.92-4.08 359.92-5.36L359.92-5.36Q359.92-6.52 358.76-7.22Q357.60-7.92 354.68-8.44L354.68-8.44Q351.80-8.96 350.12-9.70Q348.44-10.44 347.68-11.58Q346.92-12.72 346.92-14.40L346.92-14.40Q346.92-16.04 347.88-17.40Q348.84-18.76 350.64-19.58Q352.44-20.40 354.80-20.40L354.80-20.40Q358.00-20.40 359.94-19.22Q361.88-18.04 362.72-15.60L362.72-15.60L360.00-14Q359.36-15.92 358.06-16.76Q356.76-17.60 354.80-17.60L354.80-17.60Q352.84-17.60 351.48-16.72Q350.12-15.84 350.12-14.68L350.12-14.68Q350.12-13.36 351.30-12.64Q352.48-11.92 355.52-11.40L355.52-11.40Q359.68-10.72 361.40-9.36Q363.12-8 363.12-5.52L363.12-5.52Q363.12-3.80 362.10-2.46Q361.08-1.12 359.18-0.36Q357.28 0.40 354.76 0.40L354.76 0.40Z M377.04 0.40Q374.16 0.40 371.84-0.74Q369.52-1.88 368.44-4.12L368.44-4.12L371.04-5.92Q371.72-4.16 373.40-3.28Q375.08-2.40 377.36-2.40L377.36-2.40Q379.72-2.40 380.96-3.24Q382.20-4.08 382.20-5.36L382.20-5.36Q382.20-6.52 381.04-7.22Q379.88-7.92 376.96-8.44L376.96-8.44Q374.08-8.96 372.40-9.70Q370.72-10.44 369.96-11.58Q369.20-12.72 369.20-14.40L369.20-14.40Q369.20-16.04 370.16-17.40Q371.12-18.76 372.92-19.58Q374.72-20.40 377.08-20.40L377.08-20.40Q380.28-20.40 382.22-19.22Q384.16-18.04 385.00-15.60L385.00-15.60L382.28-14Q381.64-15.92 380.34-16.76Q379.04-17.60 377.08-17.60L377.08-17.60Q375.12-17.60 373.76-16.72Q372.40-15.84 372.40-14.68L372.40-14.68Q372.40-13.36 373.58-12.64Q374.76-11.92 377.80-11.40L377.80-11.40Q381.96-10.72 383.68-9.36Q385.40-8 385.40-5.52L385.40-5.52Q385.40-3.80 384.38-2.46Q383.36-1.12 381.46-0.36Q379.56 0.40 377.04 0.40L377.04 0.40Z M394.12-23.84Q393.04-23.84 392.38-24.50Q391.72-25.16 391.72-26.24L391.72-26.24Q391.72-27.32 392.38-27.98Q393.04-28.64 394.12-28.64L394.12-28.64Q395.20-28.64 395.86-27.98Q396.52-27.32 396.52-26.24L396.52-26.24Q396.52-25.16 395.86-24.50Q395.20-23.84 394.12-23.84L394.12-23.84ZM395.72-20L395.72 0L392.52 0L392.52-20L395.72-20Z M412.80-20.40Q417.32-20.40 419.90-17.64Q422.48-14.88 422.48-10L422.48-10Q422.48-5.12 419.90-2.36Q417.32 0.40 412.80 0.40L412.80 0.40Q408.28 0.40 405.70-2.36Q403.12-5.12 403.12-10L403.12-10Q403.12-14.88 405.70-17.64Q408.28-20.40 412.80-20.40L412.80-20.40ZM412.80-17.64Q409.76-17.64 408.04-15.60Q406.32-13.56 406.32-10L406.32-10Q406.32-6.44 408.04-4.40Q409.76-2.36 412.80-2.36L412.80-2.36Q415.84-2.36 417.56-4.40Q419.28-6.44 419.28-10L419.28-10Q419.28-13.56 417.56-15.60Q415.84-17.64 412.80-17.64L412.80-17.64Z M439.60-20.40Q443.00-20.40 445.20-18.44Q447.40-16.48 447.40-12.80L447.40-12.80L447.40 0L444.20 0L444.20-11.68Q444.20-14.80 442.86-16.20Q441.52-17.60 439.28-17.60L439.28-17.60Q437.68-17.60 436.28-16.90Q434.88-16.20 433.98-14.62Q433.08-13.04 433.08-10.64L433.08-10.64L433.08 0L429.88 0L429.88-20L432.68-20L432.88-16.88Q433.88-18.68 435.64-19.54Q437.40-20.40 439.60-20.40L439.60-20.40Z M472.28-23.84Q471.20-23.84 470.54-24.50Q469.88-25.16 469.88-26.24L469.88-26.24Q469.88-27.32 470.54-27.98Q471.20-28.64 472.28-28.64L472.28-28.64Q473.36-28.64 474.02-27.98Q474.68-27.32 474.68-26.24L474.68-26.24Q474.68-25.16 474.02-24.50Q473.36-23.84 472.28-23.84L472.28-23.84ZM473.88-20L473.88 0L470.68 0L470.68-20L473.88-20Z M492.24-20.40Q495.64-20.40 497.84-18.44Q500.04-16.48 500.04-12.80L500.04-12.80L500.04 0L496.84 0L496.84-11.68Q496.84-14.80 495.50-16.20Q494.16-17.60 491.92-17.60L491.92-17.60Q490.32-17.60 488.92-16.90Q487.52-16.20 486.62-14.62Q485.72-13.04 485.72-10.64L485.72-10.64L485.72 0L482.52 0L482.52-20L485.32-20L485.52-16.88Q486.52-18.68 488.28-19.54Q490.04-20.40 492.24-20.40L492.24-20.40Z M540.48-11.04Q540.48-9.92 540.32-8.80L540.32-8.80L525.24-8.80Q525.52-5.76 527.26-4.08Q529.00-2.40 531.76-2.40L531.76-2.40Q533.96-2.40 535.42-3.16Q536.88-3.92 537.40-5.36L537.40-5.36L540.08-3.96Q538.88-1.84 536.88-0.72Q534.88 0.40 531.76 0.40L531.76 0.40Q527.24 0.40 524.66-2.36Q522.08-5.12 522.08-10L522.08-10Q522.08-14.88 524.54-17.64Q527.00-20.40 531.52-20.40L531.52-20.40Q534.32-20.40 536.36-19.16Q538.40-17.92 539.44-15.80Q540.48-13.68 540.48-11.04L540.48-11.04ZM531.52-17.60Q528.88-17.60 527.26-16.04Q525.64-14.48 525.28-11.64L525.28-11.64L537.40-11.64Q537.08-14.44 535.56-16.02Q534.04-17.60 531.52-17.60L531.52-17.60Z M557.48-20.40Q560.88-20.40 563.08-18.44Q565.28-16.48 565.28-12.80L565.28-12.80L565.28 0L562.08 0L562.08-11.68Q562.08-14.80 560.74-16.20Q559.40-17.60 557.16-17.60L557.16-17.60Q555.56-17.60 554.16-16.90Q552.76-16.20 551.86-14.62Q550.96-13.04 550.96-10.64L550.96-10.64L550.96 0L547.76 0L547.76-20L550.56-20L550.76-16.88Q551.76-18.68 553.52-19.54Q555.28-20.40 557.48-20.40L557.48-20.40Z M584.88-2.56Q587.72-2.56 589.32-1.28Q590.92 0 590.92 2.20L590.92 2.20Q590.92 4.12 589.60 5.58Q588.28 7.04 586.02 7.82Q583.76 8.60 581.04 8.60L581.04 8.60Q576.48 8.60 574.16 7.14Q571.84 5.68 571.84 3.32L571.84 3.32Q571.84 1.96 572.78 0.92Q573.72-0.12 575.36-0.56L575.36-0.56Q574.12-1.16 573.38-2.08Q572.64-3 572.64-4.24L572.64-4.24Q572.64-5.72 573.44-6.70Q574.24-7.68 575.64-8.16L575.64-8.16Q574.20-9.04 573.46-10.46Q572.72-11.88 572.72-13.64L572.72-13.64Q572.72-15.60 573.76-17.14Q574.80-18.68 576.68-19.54Q578.56-20.40 580.92-20.40L580.92-20.40Q583.16-20.40 585.00-19.60L585.00-19.60Q586.12-23.68 590.64-23.68L590.64-23.68L591.36-20.88Q587.44-20.88 586.60-18.68L586.60-18.68Q587.80-17.76 588.46-16.48Q589.12-15.20 589.12-13.64L589.12-13.64Q589.12-11.68 588.08-10.14Q587.04-8.60 585.16-7.74Q583.28-6.88 580.92-6.88L580.92-6.88Q579.16-6.88 577.84-7.24L577.84-7.24Q576.64-6.96 576.12-6.36Q575.60-5.76 575.60-4.72L575.60-4.72Q575.60-3.68 576.32-3.12Q577.04-2.56 578.24-2.56L578.24-2.56L584.88-2.56ZM580.92-17.80Q578.84-17.80 577.44-16.64Q576.04-15.48 576.04-13.64L576.04-13.64Q576.04-11.80 577.44-10.64Q578.84-9.48 580.92-9.48L580.92-9.48Q583.00-9.48 584.40-10.64Q585.80-11.80 585.80-13.64L585.80-13.64Q585.80-15.48 584.40-16.64Q583.00-17.80 580.92-17.80L580.92-17.80ZM581.40 5.92Q584.44 5.92 586.20 4.94Q587.96 3.96 587.96 2.56L587.96 2.56Q587.96 1.40 587.06 0.80Q586.16 0.20 584.00 0.20L584.00 0.20L578.64 0.20Q576.80 0.20 575.80 0.86Q574.80 1.52 574.80 2.68L574.80 2.68Q574.80 4.20 576.48 5.06Q578.16 5.92 581.40 5.92L581.40 5.92Z M598.48-23.84Q597.40-23.84 596.74-24.50Q596.08-25.16 596.08-26.24L596.08-26.24Q596.08-27.32 596.74-27.98Q597.40-28.64 598.48-28.64L598.48-28.64Q599.56-28.64 600.22-27.98Q600.88-27.32 600.88-26.24L600.88-26.24Q600.88-25.16 600.22-24.50Q599.56-23.84 598.48-23.84L598.48-23.84ZM600.08-20L600.08 0L596.88 0L596.88-20L600.08-20Z M618.44-20.40Q621.84-20.40 624.04-18.44Q626.24-16.48 626.24-12.80L626.24-12.80L626.24 0L623.04 0L623.04-11.68Q623.04-14.80 621.70-16.20Q620.36-17.60 618.12-17.60L618.12-17.60Q616.52-17.60 615.12-16.90Q613.72-16.20 612.82-14.62Q611.92-13.04 611.92-10.64L611.92-10.64L611.92 0L608.72 0L608.72-20L611.52-20L611.72-16.88Q612.72-18.68 614.48-19.54Q616.24-20.40 618.44-20.40L618.44-20.40Z M651.84-11.04Q651.84-9.92 651.68-8.80L651.68-8.80L636.60-8.80Q636.88-5.76 638.62-4.08Q640.36-2.40 643.12-2.40L643.12-2.40Q645.32-2.40 646.78-3.16Q648.24-3.92 648.76-5.36L648.76-5.36L651.44-3.96Q650.24-1.84 648.24-0.72Q646.24 0.40 643.12 0.40L643.12 0.40Q638.60 0.40 636.02-2.36Q633.44-5.12 633.44-10L633.44-10Q633.44-14.88 635.90-17.64Q638.36-20.40 642.88-20.40L642.88-20.40Q645.68-20.40 647.72-19.16Q649.76-17.92 650.80-15.80Q651.84-13.68 651.84-11.04L651.84-11.04ZM642.88-17.60Q640.24-17.60 638.62-16.04Q637.00-14.48 636.64-11.64L636.64-11.64L648.76-11.64Q648.44-14.44 646.92-16.02Q645.40-17.60 642.88-17.60L642.88-17.60Z M676.28-11.04Q676.28-9.92 676.12-8.80L676.12-8.80L661.04-8.80Q661.32-5.76 663.06-4.08Q664.80-2.40 667.56-2.40L667.56-2.40Q669.76-2.40 671.22-3.16Q672.68-3.92 673.20-5.36L673.20-5.36L675.88-3.96Q674.68-1.84 672.68-0.72Q670.68 0.40 667.56 0.40L667.56 0.40Q663.04 0.40 660.46-2.36Q657.88-5.12 657.88-10L657.88-10Q657.88-14.88 660.34-17.64Q662.80-20.40 667.32-20.40L667.32-20.40Q670.12-20.40 672.16-19.16Q674.20-17.92 675.24-15.80Q676.28-13.68 676.28-11.04L676.28-11.04ZM667.32-17.60Q664.68-17.60 663.06-16.04Q661.44-14.48 661.08-11.64L661.08-11.64L673.20-11.64Q672.88-14.44 671.36-16.02Q669.84-17.60 667.32-17.60L667.32-17.60Z M693-20.40Q694.44-20.40 695.20-20L695.20-20L694.56-16.88Q693.60-17.40 692.04-17.40L692.04-17.40Q690.76-17.40 689.54-16.66Q688.32-15.92 687.54-14.42Q686.76-12.92 686.76-10.80L686.76-10.80L686.76 0L683.56 0L683.56-20L686.16-20L686.60-16.72Q688.28-20.40 693-20.40L693-20.40Z M702.68-23.84Q701.60-23.84 700.94-24.50Q700.28-25.16 700.28-26.24L700.28-26.24Q700.28-27.32 700.94-27.98Q701.60-28.64 702.68-28.64L702.68-28.64Q703.76-28.64 704.42-27.98Q705.08-27.32 705.08-26.24L705.08-26.24Q705.08-25.16 704.42-24.50Q703.76-23.84 702.68-23.84L702.68-23.84ZM704.28-20L704.28 0L701.08 0L701.08-20L704.28-20Z M722.64-20.40Q726.04-20.40 728.24-18.44Q730.44-16.48 730.44-12.80L730.44-12.80L730.44 0L727.24 0L727.24-11.68Q727.24-14.80 725.90-16.20Q724.56-17.60 722.32-17.60L722.32-17.60Q720.72-17.60 719.32-16.90Q717.92-16.20 717.02-14.62Q716.12-13.04 716.12-10.64L716.12-10.64L716.12 0L712.92 0L712.92-20L715.72-20L715.92-16.88Q716.92-18.68 718.68-19.54Q720.44-20.40 722.64-20.40L722.64-20.40Z M750.04-2.56Q752.88-2.56 754.48-1.28Q756.08 0 756.08 2.20L756.08 2.20Q756.08 4.12 754.76 5.58Q753.44 7.04 751.18 7.82Q748.92 8.60 746.20 8.60L746.20 8.60Q741.64 8.60 739.32 7.14Q737.00 5.68 737.00 3.32L737.00 3.32Q737.00 1.96 737.94 0.92Q738.88-0.12 740.52-0.56L740.52-0.56Q739.28-1.16 738.54-2.08Q737.80-3 737.80-4.24L737.80-4.24Q737.80-5.72 738.60-6.70Q739.40-7.68 740.80-8.16L740.80-8.16Q739.36-9.04 738.62-10.46Q737.88-11.88 737.88-13.64L737.88-13.64Q737.88-15.60 738.92-17.14Q739.96-18.68 741.84-19.54Q743.72-20.40 746.08-20.40L746.08-20.40Q748.32-20.40 750.16-19.60L750.16-19.60Q751.28-23.68 755.80-23.68L755.80-23.68L756.52-20.88Q752.60-20.88 751.76-18.68L751.76-18.68Q752.96-17.76 753.62-16.48Q754.28-15.20 754.28-13.64L754.28-13.64Q754.28-11.68 753.24-10.14Q752.20-8.60 750.32-7.74Q748.44-6.88 746.08-6.88L746.08-6.88Q744.32-6.88 743.00-7.24L743.00-7.24Q741.80-6.96 741.28-6.36Q740.76-5.76 740.76-4.72L740.76-4.72Q740.76-3.68 741.48-3.12Q742.20-2.56 743.40-2.56L743.40-2.56L750.04-2.56ZM746.08-17.80Q744.00-17.80 742.60-16.64Q741.20-15.48 741.20-13.64L741.20-13.64Q741.20-11.80 742.60-10.64Q744.00-9.48 746.08-9.48L746.08-9.48Q748.16-9.48 749.56-10.64Q750.96-11.80 750.96-13.64L750.96-13.64Q750.96-15.48 749.56-16.64Q748.16-17.80 746.08-17.80L746.08-17.80ZM746.56 5.92Q749.60 5.92 751.36 4.94Q753.12 3.96 753.12 2.56L753.12 2.56Q753.12 1.40 752.22 0.80Q751.32 0.20 749.16 0.20L749.16 0.20L743.80 0.20Q741.96 0.20 740.96 0.86Q739.96 1.52 739.96 2.68L739.96 2.68Q739.96 4.20 741.64 5.06Q743.32 5.92 746.56 5.92L746.56 5.92Z"/></g>
</svg>
</g><g opacity="1" transform="rotate(0 34.0694 191.2958)">
<svg width="378.1325" height="40" x="34.0694" y="191.2958" version="1.1" preserveAspectRatio="none" viewBox="1.2 -26.8 332.76 35.2">
  <g transform="matrix(1 0 0 1 0 0)" class="companyName"><path id="id-D6z1nYkh16" d="M20.88 0Q20.88-0.92 20.36-1.54Q19.84-2.16 19.02-2.16Q18.20-2.16 17.34-1.48Q16.48-0.80 15.34-0.10Q14.20 0.60 12.60 0.60L12.60 0.60Q7.16 0.60 4.18-2.20Q1.20-5 1.20-10.80L1.20-10.80Q1.20-22.92 12.52-22.92L12.52-22.92Q14.56-22.92 16.70-21.92Q18.84-20.92 19.32-20.92Q19.80-20.92 20.12-21.42Q20.44-21.92 20.44-22.40L20.44-22.40L21.20-22.40L21.20-14.28L20.40-14.28Q20.40-17.32 18.02-19.72Q15.64-22.12 12.52-22.12L12.52-22.12Q10.12-22.12 8.88-19.54Q7.64-16.96 7.64-11.02Q7.64-5.08 8.90-2.64Q10.16-0.20 12.60-0.20L12.60-0.20Q16.44-0.20 16.44-7.04L16.44-7.04L16.44-10L13.92-10L13.92-10.80L23.52-10.80L23.52-10L21.64-10L21.64 0L20.88 0Z M33.92-26.80L33.92-0.80L35.92-0.80L35.92 0L25.92 0L25.92-0.80L27.92-0.80L27.92-26L25.92-26L25.92-26.80L33.92-26.80Z M45.32-2.42Q46.20-0.40 48.36-0.40Q50.52-0.40 51.44-2.44Q52.36-4.48 52.36-9.18Q52.36-13.88 51.44-15.94Q50.52-18 48.36-18Q46.20-18 45.32-15.94Q44.44-13.88 44.44-9.16Q44.44-4.44 45.32-2.42ZM48.28 0.40Q44.48 0.40 41.40-2.08Q38.32-4.56 38.32-9.12L38.32-9.12Q38.32-11.56 39.22-13.48Q40.12-15.40 41.62-16.52Q43.12-17.64 44.84-18.22Q46.56-18.80 48.36-18.80Q50.16-18.80 51.90-18.22Q53.64-17.64 55.14-16.52Q56.64-15.40 57.56-13.48Q58.48-11.56 58.48-9.16Q58.48-6.76 57.56-4.88Q56.64-3 55.12-1.88L55.12-1.88Q52.08 0.40 48.28 0.40Z M68.08-15.76L68.08-6.24Q68.08-3.20 68.76-1.86Q69.44-0.52 70.94-0.52Q72.44-0.52 73.60-2.78Q74.76-5.04 74.76-9.14Q74.76-13.24 73.54-15.44Q72.32-17.64 70.68-17.64Q69.04-17.64 68.08-15.76L68.08-15.76ZM77.48-1.42Q76-0.44 74.60-0.04Q73.20 0.36 71.86 0.36Q70.52 0.36 69.40-0.14Q68.28-0.64 67.62-1.22Q66.96-1.80 66.16-2.30Q65.36-2.80 64.64-2.80Q63.92-2.80 63.38-2Q62.84-1.20 62.84 0L62.84 0L62.08 0L62.08-26L60.08-26L60.08-26.80L68.08-26.80L68.08-16.96Q68.72-18.04 70.18-18.66Q71.64-19.28 73.24-19.28L73.24-19.28Q76.28-19.28 78.54-16.62Q80.80-13.96 80.80-9.20L80.80-9.20Q80.80-6.40 79.88-4.40Q78.96-2.40 77.48-1.42Z M103-0.80Q102.60-0.40 101.48-0.10Q100.36 0.20 98.88 0.20L98.88 0.20Q95.60 0.20 94.76-1.76L94.76-1.76Q92.76 0.32 88.64 0.32L88.64 0.32Q86.44 0.32 85.02-0.70Q83.60-1.72 83.60-3.72L83.60-3.72Q83.60-6.40 85.68-7.86Q87.76-9.32 92.96-9.92L92.96-9.92L94.56-10.12L94.56-12.08Q94.56-15.56 94.04-16.76Q93.52-17.96 91.98-17.96Q90.44-17.96 90-17.54Q89.56-17.12 89.68-16.58Q89.80-16.04 90.08-15.16Q90.36-14.28 90.36-13.76L90.36-13.76Q90.36-12.52 89.50-11.66Q88.64-10.80 87.42-10.80Q86.20-10.80 85.32-11.66Q84.44-12.52 84.44-13.76L84.44-13.76Q84.44-15.80 86.54-17.26Q88.64-18.72 92.82-18.72Q97-18.72 98.78-17.08Q100.56-15.44 100.56-11.28L100.56-11.28L100.56-4.08Q100.56-1.96 101.08-1.42Q101.60-0.88 103-1.20L103-1.20L103-0.80ZM89.16-4.52Q89.36-3 90.28-2.18Q91.20-1.36 92.42-1.36Q93.64-1.36 94.56-2.56L94.56-2.56L94.56-9.36L93.12-9.16Q91.28-8.92 90.14-7.76Q89-6.60 89.16-4.52L89.16-4.52Z M113.40-26.80L113.40-0.80L115.40-0.80L115.40 0L105.40 0L105.40-0.80L107.40-0.80L107.40-26L105.40-26L105.40-26.80L113.40-26.80Z M148.60-0.80L150.52-0.80L150.52 0L140 0L140-0.80L142.36-0.80L139.68-6.36L131.60-6.36L129.28-0.80L132.44-0.80L132.44 0L125.60 0L125.60-0.80L128.28-0.80L137.44-22.80L138.44-22.80L148.60-0.80ZM135.36-15.36L131.96-7.20L139.28-7.20L135.36-15.36Z M165.24-16.56L165.24-18.40L173.24-18.40L173.24-17.60L171.24-17.60L171.24 7.60L173.24 7.60L173.24 8.40L163.24 8.40L163.24 7.60L165.24 7.60L165.24-1.84Q164.60-0.48 163.16 0.20Q161.72 0.88 160.08 0.88L160.08 0.88Q156.76 0.88 154.44-1.76Q152.12-4.40 152.12-9.08Q152.12-13.76 154.48-16.32Q156.84-18.88 160.36-18.88Q163.88-18.88 165.24-16.56L165.24-16.56ZM165.24-3.04L165.24-9.64Q165.24-14.08 164.64-15.68Q164.04-17.28 162.08-17.28Q160.12-17.28 159.16-15.50Q158.20-13.72 158.20-9.30Q158.20-4.88 159.44-2.88Q160.68-0.88 162.42-0.88Q164.16-0.88 165.24-3.04L165.24-3.04Z M197.44 0L189.44 0L189.44-2.12Q188.68-1.04 187.06-0.30Q185.44 0.44 183.56 0.44L183.56 0.44Q176.44 0.44 176.44-7.28L176.44-7.28L176.44-17.60L174.44-17.60L174.44-18.40L182.44-18.40L182.44-6.40Q182.44-3.56 183.28-2.36Q184.12-1.16 185.80-1.16L185.80-1.16Q188.04-1.16 189.44-3.56L189.44-3.56L189.44-17.60L187.44-17.60L187.44-18.40L195.44-18.40L195.44-0.80L197.44-0.80L197.44 0Z M219.64-0.80Q219.24-0.40 218.12-0.10Q217 0.20 215.52 0.20L215.52 0.20Q212.24 0.20 211.40-1.76L211.40-1.76Q209.40 0.32 205.28 0.32L205.28 0.32Q203.08 0.32 201.66-0.70Q200.24-1.72 200.24-3.72L200.24-3.72Q200.24-6.40 202.32-7.86Q204.40-9.32 209.60-9.92L209.60-9.92L211.20-10.12L211.20-12.08Q211.20-15.56 210.68-16.76Q210.16-17.96 208.62-17.96Q207.08-17.96 206.64-17.54Q206.20-17.12 206.32-16.58Q206.44-16.04 206.72-15.16Q207-14.28 207-13.76L207-13.76Q207-12.52 206.14-11.66Q205.28-10.80 204.06-10.80Q202.84-10.80 201.96-11.66Q201.08-12.52 201.08-13.76L201.08-13.76Q201.08-15.80 203.18-17.26Q205.28-18.72 209.46-18.72Q213.64-18.72 215.42-17.08Q217.20-15.44 217.20-11.28L217.20-11.28L217.20-4.08Q217.20-1.96 217.72-1.42Q218.24-0.88 219.64-1.20L219.64-1.20L219.64-0.80ZM205.80-4.52Q206-3 206.92-2.18Q207.84-1.36 209.06-1.36Q210.28-1.36 211.20-2.56L211.20-2.56L211.20-9.36L209.76-9.16Q207.92-8.92 206.78-7.76Q205.64-6.60 205.80-4.52L205.80-4.52Z M234.76-16.56L234.76-18.40L242.76-18.40L242.76-17.60L240.76-17.60L240.76 7.60L242.76 7.60L242.76 8.40L232.76 8.40L232.76 7.60L234.76 7.60L234.76-1.84Q234.12-0.48 232.68 0.20Q231.24 0.88 229.60 0.88L229.60 0.88Q226.28 0.88 223.96-1.76Q221.64-4.40 221.64-9.08Q221.64-13.76 224-16.32Q226.36-18.88 229.88-18.88Q233.40-18.88 234.76-16.56L234.76-16.56ZM234.76-3.04L234.76-9.64Q234.76-14.08 234.16-15.68Q233.56-17.28 231.60-17.28Q229.64-17.28 228.68-15.50Q227.72-13.72 227.72-9.30Q227.72-4.88 228.96-2.88Q230.20-0.88 231.94-0.88Q233.68-0.88 234.76-3.04L234.76-3.04Z M266.96 0L258.96 0L258.96-2.12Q258.20-1.04 256.58-0.30Q254.96 0.44 253.08 0.44L253.08 0.44Q245.96 0.44 245.96-7.28L245.96-7.28L245.96-17.60L243.96-17.60L243.96-18.40L251.96-18.40L251.96-6.40Q251.96-3.56 252.80-2.36Q253.64-1.16 255.32-1.16L255.32-1.16Q257.56-1.16 258.96-3.56L258.96-3.56L258.96-17.60L256.96-17.60L256.96-18.40L264.96-18.40L264.96-0.80L266.96-0.80L266.96 0Z M287.44-8L287.44-8L275.36-8Q275.76-0.96 280.84-0.96L280.84-0.96Q282.20-0.96 283.94-1.60Q285.68-2.24 286.48-3.40L286.48-3.40L287.04-3Q286.16-1.52 284.04-0.56Q281.92 0.40 279.82 0.40Q277.72 0.40 276.04-0.02Q274.36-0.44 272.76-1.44Q271.16-2.44 270.26-4.44Q269.36-6.44 269.36-9.28L269.36-9.28Q269.36-14.12 272.04-16.46Q274.72-18.80 278.54-18.80Q282.36-18.80 284.90-16.24Q287.44-13.68 287.44-8ZM275.32-9.24L275.32-8.80L281.84-8.80Q281.84-12.48 281.06-15.24Q280.28-18 278.56-18Q276.84-18 276.08-15.34Q275.32-12.68 275.32-9.24L275.32-9.24Z M308.04-8L308.04-8L295.96-8Q296.36-0.96 301.44-0.96L301.44-0.96Q302.80-0.96 304.54-1.60Q306.28-2.24 307.08-3.40L307.08-3.40L307.64-3Q306.76-1.52 304.64-0.56Q302.52 0.40 300.42 0.40Q298.32 0.40 296.64-0.02Q294.96-0.44 293.36-1.44Q291.76-2.44 290.86-4.44Q289.96-6.44 289.96-9.28L289.96-9.28Q289.96-14.12 292.64-16.46Q295.32-18.80 299.14-18.80Q302.96-18.80 305.50-16.24Q308.04-13.68 308.04-8ZM295.92-9.24L295.92-8.80L302.44-8.80Q302.44-12.48 301.66-15.24Q300.88-18 299.16-18Q297.44-18 296.68-15.34Q295.92-12.68 295.92-9.24L295.92-9.24Z M331.96-11.12L331.96-0.80L333.96-0.80L333.96 0L323.96 0L323.96-0.80L325.96-0.80L325.96-12Q325.96-14.84 325.12-16.04Q324.28-17.24 322.60-17.24L322.60-17.24Q320.32-17.24 318.96-14.84L318.96-14.84L318.96-0.80L320.96-0.80L320.96 0L310.96 0L310.96-0.80L312.96-0.80L312.96-17.60L310.96-17.60L310.96-18.40L318.96-18.40L318.96-16.32Q319.72-17.36 321.34-18.10Q322.96-18.84 324.84-18.84L324.84-18.84Q331.96-18.84 331.96-11.12L331.96-11.12Z"/></g>
</svg>
</g><g opacity="1" transform="rotate(0 166.4158 54.0585)">
<svg width="113.4398" height="111.2373" x="166.4158" y="54.0585" version="1.1" preserveAspectRatio="none" viewBox="23.44427490234375 24.916906356811523 153.15673828125 150.18310546875">
  <g transform="matrix(1 0 0 1 0 0)"><g><path d="M155.5 44.7c-28.5-28.4-60-18-61.3-17.6-1.3.5-2.3 1.4-2.8 2.7-.5 1.3-.4 2.6.3 3.8 4.4 7.7 11.4 11.8 16.5 14-4.6 8.1-4.9 17.8-4.9 18.3 0 2.4 1.8 4.4 4.3 4.6 12.7.9 21-6.7 25-13 2.6 1.8 6.6 6.2 9.2 16.1 2.5 10.1.1 20.5-6.5 26.5-9.1 8.5-27 9.2-32.3 9.2-31.3 0-67.3 2.1-74.4 7.8-1.4 1.1-2 2.9-1.5 4.6 3.7 14.9 12.6 28.3 25.1 37.9 13.2 10.1 29.3 15.5 46.8 15.5 42 0 62-28.8 68.6-41.2 4.3-8 8.8-22 9-37.5.1-20.1-7.2-37.9-21.1-51.7zm4.1 84.8c-4.7 8.8-13.6 21.3-29 29.2-3.5-4.4-9.3-7.2-17-8.3-5.7-.8-10.5-.5-10.7-.4-2.5.2-4.4 2.4-4.1 4.9.2 2.4 2.5 4.3 4.9 4.1 3.5-.3 12.6-.1 17.8 3.5-6.5 2.2-14 3.4-22.5 3.4-15.4 0-29.7-4.7-41.3-13.6-9.8-7.5-17.1-17.8-20.7-29.2 6-1.7 22.9-4.9 66.2-4.9 7.8 0 27.3-1.1 38.4-11.6 8.8-8.3 12.4-22.2 9-35.3-5.6-21.7-18.1-24-19.4-24.2-2.1-.3-4 .9-4.8 2.8 0 .1-3.8 9.2-13.4 11.1.7-4 2.3-9.4 5.9-12.6 1.3-1.2 1.8-3 1.3-4.6-.5-1.6-1.9-2.9-3.6-3.2-.1 0-7.1-1.3-12.7-6.3 9.6-1.1 28.1-.4 45.3 16.8 33.9 33.6 10.7 78 10.4 78.4z" data-color="1" class="icon1"></path><path d="M28 92.9c2.3 0 4.2-1.6 4.5-3.9 1.5-11.6 6.5-22.6 14-31.6S63.9 41.6 75 37.9c2.4-.8 3.6-3.4 2.9-5.7-.8-2.4-3.4-3.6-5.7-2.9-12.7 4.2-24.1 11.9-32.7 22.3s-14.2 22.9-16 36.2c-.4 2.4 1.4 4.8 3.9 5.1h.6z" data-color="1" class="icon1"></path><path d="M57.3 66.3c-5.9 7.1-9.6 15.6-10.9 24.7-.4 2.4 1.5 4.7 3.9 5.1h.6c2.3 0 4.2-1.6 4.5-4 1-7.4 4-14.4 8.8-20.1 4.8-5.8 11.1-10.1 18.3-12.3 2.4-.8 3.7-3.4 2.9-5.7-.8-2.4-3.4-3.7-5.7-2.9-8.8 2.8-16.5 8.1-22.4 15.2z" data-color="1" class="icon1"></path><path d="M75.4 81.3c-3.2 3.8-5.1 8.3-5.6 13.2-.3 2.4 1.5 4.7 4 5h.5c2.3 0 4.3-1.7 4.5-4 .4-3.1 1.6-6.1 3.6-8.4 2-2.4 4.6-4.2 7.6-5.1 2.4-.7 3.7-3.3 3-5.7-.7-2.4-3.3-3.7-5.7-3-4.6 1.4-8.7 4.2-11.9 8z" data-color="1" class="icon1"></path><path d="M75.8 127.6c-1.7 0-3.2 1.4-3.2 3.2 0 1.7 1.5 3.2 3.2 3.2s3.2-1.4 3.2-3.2c-.1-1.8-1.5-3.2-3.2-3.2z" data-color="1" class="icon1"></path></g></g>
</svg>
</g></svg></svg>