<svg version="1.1" preserveAspectRatio="none" xmlns="http://www.w3.org/2000/svg" width="500" height="500" viewBox="0 0 500 500"><rect width="100%" height="100%" fill="#0F2D49" fill-opacity="1"/><svg viewBox="129.5996 155.853 387.1235 156" width="333" height="134.18973531702417" x="83.5px" y="182.9051px" xmlns="http://www.w3.org/2000/svg" xmlns:xlink="http://www.w3.org/1999/xlink" preserveAspectRatio="none"><defs></defs><style>.companyName {fill:#CCBF90;fill-opacity:1;}.icon3-str {stroke:#EB63DD;stroke-opacity:1;}.shapeStroke-str {stroke:#CCBF90;stroke-opacity:1;}.text {fill:#E9E9E9;fill-opacity:1;}</style><g opacity="1" transform="rotate(0 150.5996 155.853)">
<svg width="366.1235" height="120" x="150.5996" y="155.853" version="1.1" preserveAspectRatio="none" viewBox="-0.6 -28.88 239.2 78.39999999999999">
  <g transform="matrix(1 0 0 1 0 0)" class="companyName"><path id="id-D6z1nYkh15" d="M13.88-28.88Q16.36-28.88 18.06-28.20Q19.76-27.52 21.40-26.28L21.40-26.28Q21.88-25.92 22.20-25.92L22.20-25.92Q22.60-25.92 22.84-26.50Q23.08-27.08 23.20-28.32L23.20-28.32L24.12-28.32Q23.96-25.60 23.96-18.64L23.96-18.64L23.04-18.64Q22.72-21.36 22.10-23.04Q21.48-24.72 20.04-25.88L20.04-25.88Q19.08-26.80 17.68-27.32Q16.28-27.84 14.80-27.84L14.80-27.84Q12-27.84 10.14-25.94Q8.28-24.04 7.40-20.92Q6.52-17.80 6.52-14.08L6.52-14.08Q6.52-0.24 14.20-0.24L14.20-0.24Q15.96-0.24 17.04-1.04L17.04-1.04Q17.56-1.40 17.78-1.88Q18-2.36 18-3.12L18-3.12L18-7.04Q18-8.92 17.68-9.78Q17.36-10.64 16.54-10.96Q15.72-11.28 13.96-11.36L13.96-11.36L13.96-12.16Q16.44-12.04 20.80-12.04L20.80-12.04Q24.36-12.04 26.16-12.16L26.16-12.16L26.16-11.36Q25.36-11.28 25-11.04Q24.64-10.80 24.50-10.12Q24.36-9.44 24.36-7.92L24.36-7.92L24.36 0L23.56 0Q23.52-0.84 23.22-1.56Q22.92-2.28 22.40-2.28L22.40-2.28Q21.72-2.28 20.24-1.44L20.24-1.44Q16.76 0.56 13.68 0.56L13.68 0.56Q6.76 0.56 3.08-3.22Q-0.60-7-0.60-13.84L-0.60-13.84Q-0.60-18.32 1.26-21.72Q3.12-25.12 6.40-27Q9.68-28.88 13.88-28.88L13.88-28.88Z M40.56-24.32L40.56-23.52Q39.20-23.44 38.60-23.20Q38-22.96 37.78-22.28Q37.56-21.60 37.56-20.08L37.56-20.08L37.56-3.76Q37.56-2.52 37.78-1.92Q38-1.32 38.52-1.12Q39.04-0.92 40.08-0.92L40.08-0.92L41.64-0.92Q44.28-0.92 46.08-2.82Q47.88-4.72 48.52-8.96L48.52-8.96L49.44-8.96Q49.32-7.64 49.32-5.68L49.32-5.68Q49.32-3.20 49.60 0L49.60 0Q47-0.12 40.84-0.12L40.84-0.12Q32.60-0.12 28.44 0L28.44 0L28.44-0.80Q29.80-0.88 30.40-1.12Q31-1.36 31.22-2.04Q31.44-2.72 31.44-4.24L31.44-4.24L31.44-20.08Q31.44-21.60 31.22-22.28Q31-22.96 30.38-23.20Q29.76-23.44 28.44-23.52L28.44-23.52L28.44-24.32Q30.48-24.20 34.76-24.20L34.76-24.20Q38.52-24.20 40.56-24.32L40.56-24.32Z M65.28-24.88Q69.32-24.88 72.36-23.42Q75.40-21.96 77.08-19.14Q78.76-16.32 78.76-12.40L78.76-12.40Q78.76-8.56 77.04-5.62Q75.32-2.68 72.24-1.06Q69.16 0.56 65.24 0.56L65.24 0.56Q61.20 0.56 58.16-0.90Q55.12-2.36 53.44-5.18Q51.76-8 51.76-11.92L51.76-11.92Q51.76-15.76 53.48-18.70Q55.20-21.64 58.28-23.26Q61.36-24.88 65.28-24.88L65.28-24.88ZM65.12-24.16Q63.04-24.16 61.46-22.62Q59.88-21.08 59.02-18.34Q58.16-15.60 58.16-12.08L58.16-12.08Q58.16-8.52 59.12-5.80Q60.08-3.08 61.74-1.62Q63.40-0.16 65.40-0.16L65.40-0.16Q67.48-0.16 69.06-1.70Q70.64-3.24 71.50-5.98Q72.36-8.72 72.36-12.24L72.36-12.24Q72.36-15.80 71.40-18.52Q70.44-21.24 68.78-22.70Q67.12-24.16 65.12-24.16L65.12-24.16Z M95.52-12.96Q100.56-12.44 102.64-10.76Q104.72-9.08 104.72-6.56L104.72-6.56Q104.72-3.48 101.96-1.74Q99.20 0 94.08 0L94.08 0Q92.96 0 92.16-0.04L92.16-0.04Q89.44-0.12 86.88-0.12L86.88-0.12Q83.32-0.12 81.44 0L81.44 0L81.44-0.80Q82.80-0.88 83.40-1.12Q84-1.36 84.22-2.04Q84.44-2.72 84.44-4.24L84.44-4.24L84.44-20.08Q84.44-21.60 84.22-22.28Q84-22.96 83.40-23.20Q82.80-23.44 81.44-23.52L81.44-23.52L81.44-24.32Q83.32-24.20 86.80-24.20L86.80-24.20L91.36-24.24Q92.16-24.28 93.16-24.28L93.16-24.28Q97.96-24.28 100.30-22.86Q102.64-21.44 102.64-18.80L102.64-18.80Q102.64-16.76 100.96-15.30Q99.28-13.84 95.52-13.04L95.52-13.04L95.52-12.96ZM92.64-23.52Q91.76-23.52 91.32-23.24Q90.88-22.96 90.72-22.24Q90.56-21.52 90.56-20.08L90.56-20.08L90.56-13.04L91.88-13.04Q94.44-13.04 95.42-14.44Q96.40-15.84 96.40-18.36L96.40-18.36Q96.40-20.96 95.52-22.24Q94.64-23.52 92.64-23.52L92.64-23.52ZM92.68-0.92Q95.60-0.92 96.96-2.38Q98.32-3.84 98.32-6.72L98.32-6.72Q98.32-9.52 96.94-10.94Q95.56-12.36 92.56-12.36L92.56-12.36L90.56-12.36L90.56-4.24Q90.56-2.80 90.72-2.12Q90.88-1.44 91.32-1.18Q91.76-0.92 92.68-0.92L92.68-0.92Z M128.52-3.36Q129.68-0.88 131.04-0.80L131.04-0.80L131.04 0Q129.12-0.12 125.80-0.12L125.80-0.12Q121.52-0.12 119.48 0L119.48 0L119.48-0.80Q120.80-0.88 121.44-1.22Q122.08-1.56 122.08-2.36L122.08-2.36Q122.08-3.08 121.56-4.16L121.56-4.16L119.56-8.72L111.16-8.72L110.68-7.64Q109.56-5 109.56-3.52L109.56-3.52Q109.56-2.16 110.44-1.52Q111.32-0.88 113.04-0.80L113.04-0.80L113.04 0Q110.76-0.12 108.44-0.12L108.44-0.12Q106.28-0.12 105.20 0L105.20 0L105.20-0.80Q106.16-1 106.98-2.02Q107.80-3.04 108.72-5.08L108.72-5.08L117.16-24.40Q117.48-24.36 118.08-24.36L118.08-24.36Q118.72-24.36 119.00-24.40L119.00-24.40L128.52-3.36ZM111.52-9.52L119.20-9.52L115.36-18.28L111.52-9.52Z M144.20-24.32L144.20-23.52Q142.84-23.44 142.24-23.20Q141.64-22.96 141.42-22.28Q141.20-21.60 141.20-20.08L141.20-20.08L141.20-3.76Q141.20-2.52 141.42-1.92Q141.64-1.32 142.16-1.12Q142.68-0.92 143.72-0.92L143.72-0.92L145.28-0.92Q147.92-0.92 149.72-2.82Q151.52-4.72 152.16-8.96L152.16-8.96L153.08-8.96Q152.96-7.64 152.96-5.68L152.96-5.68Q152.96-3.20 153.24 0L153.24 0Q150.64-0.12 144.48-0.12L144.48-0.12Q136.24-0.12 132.08 0L132.08 0L132.08-0.80Q133.44-0.88 134.04-1.12Q134.64-1.36 134.86-2.04Q135.08-2.72 135.08-4.24L135.08-4.24L135.08-20.08Q135.08-21.60 134.86-22.28Q134.64-22.96 134.02-23.20Q133.40-23.44 132.08-23.52L132.08-23.52L132.08-24.32Q134.12-24.20 138.40-24.20L138.40-24.20Q142.16-24.20 144.20-24.32L144.20-24.32Z M24.44 38.64Q24.96 39.96 25.64 40.56Q26.32 41.16 26.96 41.20L26.96 41.20L26.96 42Q24.56 41.88 20.88 41.88L20.88 41.88Q16.80 41.88 14.80 42L14.80 42L14.80 41.20Q16.32 41.12 16.96 40.82Q17.60 40.52 17.60 39.76L17.60 39.76Q17.60 39.04 17.12 37.84L17.12 37.84L14.72 31.28L6 31.28L4.96 34.04Q3.84 36.92 3.84 38.48L3.84 38.48Q3.84 39.96 4.74 40.54Q5.64 41.12 7.40 41.20L7.40 41.20L7.40 42Q4.68 41.88 2.44 41.88L2.44 41.88Q0.60 41.88-0.60 42L-0.60 42L-0.60 41.20Q1.36 40.84 2.84 37L2.84 37L11.96 13.60Q12.40 13.64 13.36 13.64L13.36 13.64Q14.32 13.64 14.72 13.60L14.72 13.60L24.44 38.64ZM6.32 30.48L14.44 30.48L10.48 19.68L6.32 30.48Z M59.64 43.24L60.24 43.52Q59.44 46.44 57.28 47.98Q55.12 49.52 51.76 49.52L51.76 49.52Q48.92 49.52 46.22 48.76Q43.52 48 39.44 46.44L39.44 46.44Q37.04 45.52 35.52 45L35.52 45Q34.76 45.40 33.86 45.62Q32.96 45.84 32.16 45.84L32.16 45.84Q31.32 45.84 30.80 45.58Q30.28 45.32 30.28 44.80L30.28 44.80Q30.28 43.72 32.48 43.72L32.48 43.72Q33.96 43.72 35.52 44.28L35.52 44.28Q36.72 43.96 38.56 43.16L38.56 43.16Q39.60 42.68 40.20 42.48L40.20 42.48Q34.72 42.04 31.56 38.80Q28.40 35.56 28.40 30.08L28.40 30.08Q28.40 26.24 30.12 23.30Q31.84 20.36 34.92 18.74Q38 17.12 41.92 17.12L41.92 17.12Q45.96 17.12 49 18.58Q52.04 20.04 53.72 22.86Q55.40 25.68 55.40 29.60L55.40 29.60Q55.40 33.24 53.84 36.08Q52.28 38.92 49.50 40.60Q46.72 42.28 43.08 42.52L43.08 42.52Q42.12 42.60 41.36 42.86Q40.60 43.12 39.44 43.60L39.44 43.60Q37.80 44.32 36.68 44.56L36.68 44.56Q37 44.60 37.80 44.60L37.80 44.60Q38.52 44.60 40.44 44.52L40.44 44.52Q41.88 44.40 43.32 44.40L43.32 44.40Q45.72 44.40 49.40 45.04L49.40 45.04Q52.36 45.56 54 45.56L54 45.56Q56.40 45.56 57.66 45.02Q58.92 44.48 59.64 43.24L59.64 43.24ZM34.80 29.92Q34.80 33.48 35.76 36.20Q36.72 38.92 38.38 40.38Q40.04 41.84 42.04 41.84L42.04 41.84Q44.12 41.84 45.70 40.30Q47.28 38.76 48.14 36.02Q49 33.28 49 29.76L49 29.76Q49 26.20 48.04 23.48Q47.08 20.76 45.42 19.30Q43.76 17.84 41.76 17.84L41.76 17.84Q39.68 17.84 38.10 19.38Q36.52 20.92 35.66 23.66Q34.80 26.40 34.80 29.92L34.80 29.92Z M83.04 17.68L83.04 18.48Q81.64 18.68 80.96 19.16Q80.28 19.64 80.04 20.68Q79.80 21.72 79.80 23.76L79.80 23.76L79.80 31.16Q79.80 33.92 79.42 35.86Q79.04 37.80 78.16 39.24L78.16 39.24Q77.20 40.76 75.30 41.66Q73.40 42.56 71 42.56L71 42.56Q66.48 42.56 63.96 40.80L63.96 40.80Q62.56 39.76 61.84 38.56Q61.12 37.36 60.82 35.66Q60.52 33.96 60.52 31.28L60.52 31.28L60.52 21.92Q60.52 20.40 60.30 19.72Q60.08 19.04 59.46 18.80Q58.84 18.56 57.52 18.48L57.52 18.48L57.52 17.68Q59.52 17.80 63.60 17.80L63.60 17.80Q67.48 17.80 69.64 17.68L69.64 17.68L69.64 18.48Q68.28 18.56 67.68 18.80Q67.08 19.04 66.86 19.72Q66.64 20.40 66.64 21.92L66.64 21.92L66.64 31.96Q66.64 34.84 67.02 36.72Q67.40 38.60 68.64 39.76Q69.88 40.92 72.32 40.92L72.32 40.92Q75.96 40.92 77.42 38.46Q78.88 36 78.88 31.60L78.88 31.60L78.88 24.24Q78.88 21.92 78.60 20.80Q78.32 19.68 77.52 19.18Q76.72 18.68 75 18.48L75 18.48L75 17.68Q76.56 17.80 79.32 17.80L79.32 17.80Q81.72 17.80 83.04 17.68L83.04 17.68Z M105.12 38.64Q106.28 41.12 107.64 41.20L107.64 41.20L107.64 42Q105.72 41.88 102.40 41.88L102.40 41.88Q98.12 41.88 96.08 42L96.08 42L96.08 41.20Q97.40 41.12 98.04 40.78Q98.68 40.44 98.68 39.64L98.68 39.64Q98.68 38.92 98.16 37.84L98.16 37.84L96.16 33.28L87.76 33.28L87.28 34.36Q86.16 37 86.16 38.48L86.16 38.48Q86.16 39.84 87.04 40.48Q87.92 41.12 89.64 41.20L89.64 41.20L89.64 42Q87.36 41.88 85.04 41.88L85.04 41.88Q82.88 41.88 81.80 42L81.80 42L81.80 41.20Q82.76 41 83.58 39.98Q84.40 38.96 85.32 36.92L85.32 36.92L93.76 17.60Q94.08 17.64 94.68 17.64L94.68 17.64Q95.32 17.64 95.60 17.60L95.60 17.60L105.12 38.64ZM88.12 32.48L95.80 32.48L91.96 23.72L88.12 32.48Z M139.56 43.24L140.16 43.52Q139.36 46.44 137.20 47.98Q135.04 49.52 131.68 49.52L131.68 49.52Q128.84 49.52 126.14 48.76Q123.44 48 119.36 46.44L119.36 46.44Q116.96 45.52 115.44 45L115.44 45Q114.68 45.40 113.78 45.62Q112.88 45.84 112.08 45.84L112.08 45.84Q111.24 45.84 110.72 45.58Q110.20 45.32 110.20 44.80L110.20 44.80Q110.20 43.72 112.40 43.72L112.40 43.72Q113.88 43.72 115.44 44.28L115.44 44.28Q116.64 43.96 118.48 43.16L118.48 43.16Q119.52 42.68 120.12 42.48L120.12 42.48Q114.64 42.04 111.48 38.80Q108.32 35.56 108.32 30.08L108.32 30.08Q108.32 26.24 110.04 23.30Q111.76 20.36 114.84 18.74Q117.92 17.12 121.84 17.12L121.84 17.12Q125.88 17.12 128.92 18.58Q131.96 20.04 133.64 22.86Q135.32 25.68 135.32 29.60L135.32 29.60Q135.32 33.24 133.76 36.08Q132.20 38.92 129.42 40.60Q126.64 42.28 123 42.52L123 42.52Q122.04 42.60 121.28 42.86Q120.52 43.12 119.36 43.60L119.36 43.60Q117.72 44.32 116.60 44.56L116.60 44.56Q116.92 44.60 117.72 44.60L117.72 44.60Q118.44 44.60 120.36 44.52L120.36 44.52Q121.80 44.40 123.24 44.40L123.24 44.40Q125.64 44.40 129.32 45.04L129.32 45.04Q132.28 45.56 133.92 45.56L133.92 45.56Q136.32 45.56 137.58 45.02Q138.84 44.48 139.56 43.24L139.56 43.24ZM114.72 29.92Q114.72 33.48 115.68 36.20Q116.64 38.92 118.30 40.38Q119.96 41.84 121.96 41.84L121.96 41.84Q124.04 41.84 125.62 40.30Q127.20 38.76 128.06 36.02Q128.92 33.28 128.92 29.76L128.92 29.76Q128.92 26.20 127.96 23.48Q127 20.76 125.34 19.30Q123.68 17.84 121.68 17.84L121.68 17.84Q119.60 17.84 118.02 19.38Q116.44 20.92 115.58 23.66Q114.72 26.40 114.72 29.92L114.72 29.92Z M162.96 17.68L162.96 18.48Q161.56 18.68 160.88 19.16Q160.20 19.64 159.96 20.68Q159.72 21.72 159.72 23.76L159.72 23.76L159.72 31.16Q159.72 33.92 159.34 35.86Q158.96 37.80 158.08 39.24L158.08 39.24Q157.12 40.76 155.22 41.66Q153.32 42.56 150.92 42.56L150.92 42.56Q146.40 42.56 143.88 40.80L143.88 40.80Q142.48 39.76 141.76 38.56Q141.04 37.36 140.74 35.66Q140.44 33.96 140.44 31.28L140.44 31.28L140.44 21.92Q140.44 20.40 140.22 19.72Q140 19.04 139.38 18.80Q138.76 18.56 137.44 18.48L137.44 18.48L137.44 17.68Q139.44 17.80 143.52 17.80L143.52 17.80Q147.40 17.80 149.56 17.68L149.56 17.68L149.56 18.48Q148.20 18.56 147.60 18.80Q147 19.04 146.78 19.72Q146.56 20.40 146.56 21.92L146.56 21.92L146.56 31.96Q146.56 34.84 146.94 36.72Q147.32 38.60 148.56 39.76Q149.80 40.92 152.24 40.92L152.24 40.92Q155.88 40.92 157.34 38.46Q158.80 36 158.80 31.60L158.80 31.60L158.80 24.24Q158.80 21.92 158.52 20.80Q158.24 19.68 157.44 19.18Q156.64 18.68 154.92 18.48L154.92 18.48L154.92 17.68Q156.48 17.80 159.24 17.80L159.24 17.80Q161.64 17.80 162.96 17.68L162.96 17.68Z M185.68 36.80Q185.68 39.08 185.96 42L185.96 42Q183.36 41.88 177.20 41.88L177.20 41.88Q168.96 41.88 164.80 42L164.80 42L164.80 41.20Q166.16 41.12 166.76 40.88Q167.36 40.64 167.58 39.96Q167.80 39.28 167.80 37.76L167.80 37.76L167.80 21.92Q167.80 20.40 167.58 19.72Q167.36 19.04 166.74 18.80Q166.12 18.56 164.80 18.48L164.80 18.48L164.80 17.68Q168.96 17.80 177.20 17.80L177.20 17.80Q182.80 17.80 185.16 17.68L185.16 17.68Q184.88 20.36 184.88 22.48L184.88 22.48Q184.88 24.04 185 24.96L185 24.96L184.08 24.96Q183.48 21.52 182 20.06Q180.52 18.60 177.92 18.60L177.92 18.60L176.44 18.60Q175.40 18.60 174.88 18.78Q174.36 18.96 174.14 19.50Q173.92 20.04 173.92 21.20L173.92 21.20L173.92 29.36L175.80 29.36Q177.64 29.36 178.58 28.06Q179.52 26.76 179.84 25.04L179.84 25.04L180.76 25.04Q180.64 26.40 180.64 28.16L180.64 28.16L180.64 29.76Q180.64 31.56 180.88 34.48L180.88 34.48L179.96 34.48Q179.68 32.60 178.70 31.38Q177.72 30.16 175.80 30.16L175.80 30.16L173.92 30.16L173.92 38.48Q173.92 39.64 174.14 40.18Q174.36 40.72 174.88 40.90Q175.40 41.08 176.44 41.08L176.44 41.08L178.16 41.08Q181 41.08 182.62 39.44Q184.24 37.80 184.88 33.92L184.88 33.92L185.80 33.92Q185.68 35.04 185.68 36.80L185.68 36.80Z M210.04 36.80Q210.04 39.08 210.32 42L210.32 42Q207.72 41.88 201.56 41.88L201.56 41.88Q193.32 41.88 189.16 42L189.16 42L189.16 41.20Q190.52 41.12 191.12 40.88Q191.72 40.64 191.94 39.96Q192.16 39.28 192.16 37.76L192.16 37.76L192.16 21.92Q192.16 20.40 191.94 19.72Q191.72 19.04 191.10 18.80Q190.48 18.56 189.16 18.48L189.16 18.48L189.16 17.68Q193.32 17.80 201.56 17.80L201.56 17.80Q207.16 17.80 209.52 17.68L209.52 17.68Q209.24 20.36 209.24 22.48L209.24 22.48Q209.24 24.04 209.36 24.96L209.36 24.96L208.44 24.96Q207.84 21.52 206.36 20.06Q204.88 18.60 202.28 18.60L202.28 18.60L200.80 18.60Q199.76 18.60 199.24 18.78Q198.72 18.96 198.50 19.50Q198.28 20.04 198.28 21.20L198.28 21.20L198.28 29.36L200.16 29.36Q202 29.36 202.94 28.06Q203.88 26.76 204.20 25.04L204.20 25.04L205.12 25.04Q205 26.40 205 28.16L205 28.16L205 29.76Q205 31.56 205.24 34.48L205.24 34.48L204.32 34.48Q204.04 32.60 203.06 31.38Q202.08 30.16 200.16 30.16L200.16 30.16L198.28 30.16L198.28 38.48Q198.28 39.64 198.50 40.18Q198.72 40.72 199.24 40.90Q199.76 41.08 200.80 41.08L200.80 41.08L202.52 41.08Q205.36 41.08 206.98 39.44Q208.60 37.80 209.24 33.92L209.24 33.92L210.16 33.92Q210.04 35.04 210.04 36.80L210.04 36.80Z M238.60 17.68L238.60 18.48Q237.28 18.68 236.66 19.08Q236.04 19.48 235.82 20.36Q235.60 21.24 235.60 23.04L235.60 23.04L235.60 42.08L234.52 42.04L233.48 42.08L217.48 22.20L217.48 36.64Q217.48 38.40 217.80 39.30Q218.12 40.20 218.96 40.60Q219.80 41 221.60 41.20L221.60 41.20L221.60 42Q219.80 41.88 217.04 41.88L217.04 41.88Q214.84 41.88 213.56 42L213.56 42L213.56 41.20Q214.88 41 215.50 40.60Q216.12 40.20 216.34 39.32Q216.56 38.44 216.56 36.64L216.56 36.64L216.56 21.92Q216.56 20.40 216.34 19.72Q216.12 19.04 215.50 18.80Q214.88 18.56 213.56 18.48L213.56 18.48L213.56 17.68Q214.84 17.80 217.04 17.80L217.04 17.80Q219.88 17.80 221.92 17.68L221.92 17.68L234.68 33.52L234.68 23.04Q234.68 21.28 234.36 20.38Q234.04 19.48 233.18 19.08Q232.32 18.68 230.56 18.48L230.56 18.48L230.56 17.68Q232.32 17.80 235.12 17.80L235.12 17.80Q237.36 17.80 238.60 17.68L238.60 17.68Z"/></g>
</svg>
</g><g opacity="1" transform="rotate(0 129.5996 155.853)">
<svg width="3" height="120" x="129.5996" y="155.853" version="1.1" preserveAspectRatio="none" viewBox="0 0 3 120">
  <defs><rect x="0" y="0" width="3" height="120" rx="0px" ry="0px" id="id-tBXipXk0b1701648389572"></rect></defs><use class="companyName shapeStroke-str" style="stroke-width:0;" xlink:href="#id-tBXipXk0b1701648389572"></use>
</svg>
</g><g opacity="1" transform="rotate(0 129.5996 295.853)">
<svg width="322.0548" height="16" x="129.5996" y="295.853" version="1.1" preserveAspectRatio="none" viewBox="4.2 -30.28 770.52 38.28">
  <g transform="matrix(1 0 0 1 0 0)" class="text"><path id="id-D-YM9nyY436" d="M15.12-28Q20.56-28 23.68-25.40Q26.80-22.80 26.80-18.24L26.80-18.24Q26.80-13.68 23.68-11.08Q20.56-8.48 15.12-8.48L15.12-8.48L8.20-8.48L8.20 0L4.20 0L4.20-28L15.12-28ZM15-11.96Q18.80-11.96 20.80-13.58Q22.80-15.20 22.80-18.24L22.80-18.24Q22.80-21.28 20.80-22.90Q18.80-24.52 15-24.52L15-24.52L8.20-24.52L8.20-11.96L15-11.96Z M36.24-17.64Q37.24-19.48 39.20-20.44Q41.16-21.40 43.96-21.40L43.96-21.40L43.96-17.68Q43.64-17.72 43.08-17.72L43.08-17.72Q39.96-17.72 38.18-15.86Q36.40-14 36.40-10.56L36.40-10.56L36.40 0L32.56 0L32.56-21.20L36.24-21.20L36.24-17.64Z M68.44-10.48Q68.44-10.04 68.36-9.32L68.36-9.32L51.16-9.32Q51.52-6.52 53.62-4.82Q55.72-3.12 58.84-3.12L58.84-3.12Q62.64-3.12 64.96-5.68L64.96-5.68L67.08-3.20Q65.64-1.52 63.50-0.64Q61.36 0.24 58.72 0.24L58.72 0.24Q55.36 0.24 52.76-1.14Q50.16-2.52 48.74-5Q47.32-7.48 47.32-10.60L47.32-10.60Q47.32-13.68 48.70-16.16Q50.08-18.64 52.50-20.02Q54.92-21.40 57.96-21.40L57.96-21.40Q61.00-21.40 63.38-20.02Q65.76-18.64 67.10-16.16Q68.44-13.68 68.44-10.48L68.44-10.48ZM57.96-18.16Q55.20-18.16 53.34-16.48Q51.48-14.80 51.16-12.08L51.16-12.08L64.76-12.08Q64.44-14.76 62.58-16.46Q60.72-18.16 57.96-18.16L57.96-18.16Z M83.80 0.24Q80.56 0.24 78.02-1.16Q75.48-2.56 74.04-5.02Q72.60-7.48 72.60-10.60L72.60-10.60Q72.60-13.72 74.04-16.18Q75.48-18.64 78.02-20.02Q80.56-21.40 83.80-21.40L83.80-21.40Q86.68-21.40 88.94-20.24Q91.20-19.08 92.44-16.88L92.44-16.88L89.52-15Q88.52-16.52 87.04-17.28Q85.56-18.04 83.76-18.04L83.76-18.04Q81.68-18.04 80.02-17.12Q78.36-16.20 77.42-14.50Q76.48-12.80 76.48-10.60L76.48-10.60Q76.48-8.36 77.42-6.66Q78.36-4.96 80.02-4.04Q81.68-3.12 83.76-3.12L83.76-3.12Q85.56-3.12 87.04-3.88Q88.52-4.64 89.52-6.16L89.52-6.16L92.44-4.32Q91.20-2.12 88.94-0.94Q86.68 0.24 83.80 0.24L83.80 0.24Z M98.20 0L98.20-21.20L102.04-21.20L102.04 0L98.20 0ZM100.12-25.28Q99.00-25.28 98.26-26Q97.52-26.72 97.52-27.76L97.52-27.76Q97.52-28.80 98.26-29.54Q99.00-30.28 100.12-30.28L100.12-30.28Q101.24-30.28 101.98-29.58Q102.72-28.88 102.72-27.84L102.72-27.84Q102.72-26.76 101.98-26.02Q101.24-25.28 100.12-25.28L100.12-25.28Z M116.24 0.24Q113.64 0.24 111.24-0.46Q108.84-1.16 107.48-2.24L107.48-2.24L109.08-5.28Q110.48-4.28 112.48-3.68Q114.48-3.08 116.52-3.08L116.52-3.08Q121.56-3.08 121.56-5.96L121.56-5.96Q121.56-6.92 120.88-7.48Q120.20-8.04 119.18-8.30Q118.16-8.56 116.28-8.88L116.28-8.88Q113.72-9.28 112.10-9.80Q110.48-10.32 109.32-11.56Q108.16-12.80 108.16-15.04L108.16-15.04Q108.16-17.92 110.56-19.66Q112.96-21.40 117.00-21.40L117.00-21.40Q119.12-21.40 121.24-20.88Q123.36-20.36 124.72-19.48L124.72-19.48L123.08-16.44Q120.48-18.12 116.96-18.12L116.96-18.12Q114.52-18.12 113.24-17.32Q111.96-16.52 111.96-15.20L111.96-15.20Q111.96-14.16 112.68-13.56Q113.40-12.96 114.46-12.68Q115.52-12.40 117.44-12.04L117.44-12.04Q120.00-11.60 121.58-11.10Q123.16-10.60 124.28-9.40Q125.40-8.20 125.40-6.04L125.40-6.04Q125.40-3.16 122.94-1.46Q120.48 0.24 116.24 0.24L116.24 0.24Z M131.00 0L131.00-21.20L134.84-21.20L134.84 0L131.00 0ZM132.92-25.28Q131.80-25.28 131.06-26Q130.32-26.72 130.32-27.76L130.32-27.76Q130.32-28.80 131.06-29.54Q131.80-30.28 132.92-30.28L132.92-30.28Q134.04-30.28 134.78-29.58Q135.52-28.88 135.52-27.84L135.52-27.84Q135.52-26.76 134.78-26.02Q134.04-25.28 132.92-25.28L132.92-25.28Z M152.04 0.24Q148.88 0.24 146.36-1.16Q143.84-2.56 142.42-5.02Q141-7.48 141-10.60L141-10.60Q141-13.72 142.42-16.18Q143.84-18.64 146.36-20.02Q148.88-21.40 152.04-21.40L152.04-21.40Q155.20-21.40 157.70-20.02Q160.20-18.64 161.62-16.18Q163.04-13.72 163.04-10.60L163.04-10.60Q163.04-7.48 161.62-5.02Q160.20-2.56 157.70-1.16Q155.20 0.24 152.04 0.24L152.04 0.24ZM152.04-3.12Q154.08-3.12 155.70-4.06Q157.32-5 158.24-6.70Q159.16-8.40 159.16-10.60L159.16-10.60Q159.16-12.80 158.24-14.50Q157.32-16.20 155.70-17.12Q154.08-18.04 152.04-18.04L152.04-18.04Q150-18.04 148.38-17.12Q146.76-16.20 145.82-14.50Q144.88-12.80 144.88-10.60L144.88-10.60Q144.88-8.40 145.82-6.70Q146.76-5 148.38-4.06Q150-3.12 152.04-3.12L152.04-3.12Z M180.48-21.40Q184.52-21.40 186.90-19.06Q189.28-16.72 189.28-12.20L189.28-12.20L189.28 0L185.44 0L185.44-11.76Q185.44-14.84 183.96-16.40Q182.48-17.96 179.72-17.96L179.72-17.96Q176.60-17.96 174.80-16.14Q173-14.32 173-10.92L173-10.92L173 0L169.16 0L169.16-21.20L172.84-21.20L172.84-18Q174-19.64 175.98-20.52Q177.96-21.40 180.48-21.40L180.48-21.40Z M216.48-21.40Q220.88-21.40 223.22-19.24Q225.56-17.08 225.56-12.80L225.56-12.80L225.56 0L221.92 0L221.92-2.80Q220.96-1.32 219.18-0.54Q217.40 0.24 214.96 0.24L214.96 0.24Q211.40 0.24 209.26-1.48Q207.12-3.20 207.12-6L207.12-6Q207.12-8.80 209.16-10.50Q211.20-12.20 215.64-12.20L215.64-12.20L221.72-12.20L221.72-12.96Q221.72-15.44 220.28-16.76Q218.84-18.08 216.04-18.08L216.04-18.08Q214.16-18.08 212.36-17.46Q210.56-16.84 209.32-15.80L209.32-15.80L207.72-18.68Q209.36-20 211.64-20.70Q213.92-21.40 216.48-21.40L216.48-21.40ZM215.60-2.72Q217.80-2.72 219.40-3.70Q221.00-4.68 221.72-6.48L221.72-6.48L221.72-9.44L215.80-9.44Q210.92-9.44 210.92-6.16L210.92-6.16Q210.92-4.56 212.16-3.64Q213.40-2.72 215.60-2.72L215.60-2.72Z M244.80-21.40Q248.84-21.40 251.22-19.06Q253.60-16.72 253.60-12.20L253.60-12.20L253.60 0L249.76 0L249.76-11.76Q249.76-14.84 248.28-16.40Q246.80-17.96 244.04-17.96L244.04-17.96Q240.92-17.96 239.12-16.14Q237.32-14.32 237.32-10.92L237.32-10.92L237.32 0L233.48 0L233.48-21.20L237.16-21.20L237.16-18Q238.32-19.64 240.30-20.52Q242.28-21.40 244.80-21.40L244.80-21.40Z M277.80-29.68L281.64-29.68L281.64 0L277.96 0L277.96-3.36Q276.68-1.60 274.72-0.68Q272.76 0.24 270.40 0.24L270.40 0.24Q267.32 0.24 264.88-1.12Q262.44-2.48 261.06-4.94Q259.68-7.40 259.68-10.60L259.68-10.60Q259.68-13.80 261.06-16.24Q262.44-18.68 264.88-20.04Q267.32-21.40 270.40-21.40L270.40-21.40Q272.68-21.40 274.60-20.54Q276.52-19.68 277.80-18L277.80-18L277.80-29.68ZM270.72-3.12Q272.72-3.12 274.36-4.06Q276.00-5 276.92-6.70Q277.84-8.40 277.84-10.60L277.84-10.60Q277.84-12.80 276.92-14.50Q276.00-16.20 274.36-17.12Q272.72-18.04 270.72-18.04L270.72-18.04Q268.68-18.04 267.06-17.12Q265.44-16.20 264.50-14.50Q263.56-12.80 263.56-10.60L263.56-10.60Q263.56-8.40 264.50-6.70Q265.44-5 267.06-4.06Q268.68-3.12 270.72-3.12L270.72-3.12Z M312.52-21.40Q315.60-21.40 318.04-20.04Q320.48-18.68 321.86-16.24Q323.24-13.80 323.24-10.60L323.24-10.60Q323.24-7.40 321.86-4.94Q320.48-2.48 318.04-1.12Q315.60 0.24 312.52 0.24L312.52 0.24Q310.24 0.24 308.34-0.64Q306.44-1.52 305.12-3.20L305.12-3.20L305.12 7.76L301.28 7.76L301.28-21.20L304.96-21.20L304.96-17.84Q306.24-19.60 308.20-20.50Q310.16-21.40 312.52-21.40L312.52-21.40ZM312.20-3.12Q314.24-3.12 315.86-4.06Q317.48-5 318.42-6.70Q319.36-8.40 319.36-10.60L319.36-10.60Q319.36-12.80 318.42-14.50Q317.48-16.20 315.86-17.12Q314.24-18.04 312.20-18.04L312.20-18.04Q310.20-18.04 308.58-17.10Q306.96-16.16 306.02-14.48Q305.08-12.80 305.08-10.60L305.08-10.60Q305.08-8.40 306.00-6.70Q306.92-5 308.56-4.06Q310.20-3.12 312.20-3.12L312.20-3.12Z M336.88-21.40Q341.28-21.40 343.62-19.24Q345.96-17.08 345.96-12.80L345.96-12.80L345.96 0L342.32 0L342.32-2.80Q341.36-1.32 339.58-0.54Q337.80 0.24 335.36 0.24L335.36 0.24Q331.80 0.24 329.66-1.48Q327.52-3.20 327.52-6L327.52-6Q327.52-8.80 329.56-10.50Q331.60-12.20 336.04-12.20L336.04-12.20L342.12-12.20L342.12-12.96Q342.12-15.44 340.68-16.76Q339.24-18.08 336.44-18.08L336.44-18.08Q334.56-18.08 332.76-17.46Q330.96-16.84 329.72-15.80L329.72-15.80L328.12-18.68Q329.76-20 332.04-20.70Q334.32-21.40 336.88-21.40L336.88-21.40ZM336.00-2.72Q338.20-2.72 339.80-3.70Q341.40-4.68 342.12-6.48L342.12-6.48L342.12-9.44L336.20-9.44Q331.32-9.44 331.32-6.16L331.32-6.16Q331.32-4.56 332.56-3.64Q333.80-2.72 336.00-2.72L336.00-2.72Z M359.96 0.24Q357.36 0.24 354.96-0.46Q352.56-1.16 351.20-2.24L351.20-2.24L352.80-5.28Q354.20-4.28 356.20-3.68Q358.20-3.08 360.24-3.08L360.24-3.08Q365.28-3.08 365.28-5.96L365.28-5.96Q365.28-6.92 364.60-7.48Q363.92-8.04 362.90-8.30Q361.88-8.56 360.00-8.88L360.00-8.88Q357.44-9.28 355.82-9.80Q354.20-10.32 353.04-11.56Q351.88-12.80 351.88-15.04L351.88-15.04Q351.88-17.92 354.28-19.66Q356.68-21.40 360.72-21.40L360.72-21.40Q362.84-21.40 364.96-20.88Q367.08-20.36 368.44-19.48L368.44-19.48L366.80-16.44Q364.20-18.12 360.68-18.12L360.68-18.12Q358.24-18.12 356.96-17.32Q355.68-16.52 355.68-15.20L355.68-15.20Q355.68-14.16 356.40-13.56Q357.12-12.96 358.18-12.68Q359.24-12.40 361.16-12.04L361.16-12.04Q363.72-11.60 365.30-11.10Q366.88-10.60 368.00-9.40Q369.12-8.20 369.12-6.04L369.12-6.04Q369.12-3.16 366.66-1.46Q364.20 0.24 359.96 0.24L359.96 0.24Z M380.80 0.24Q378.20 0.24 375.80-0.46Q373.40-1.16 372.04-2.24L372.04-2.24L373.64-5.28Q375.04-4.28 377.04-3.68Q379.04-3.08 381.08-3.08L381.08-3.08Q386.12-3.08 386.12-5.96L386.12-5.96Q386.12-6.92 385.44-7.48Q384.76-8.04 383.74-8.30Q382.72-8.56 380.84-8.88L380.84-8.88Q378.28-9.28 376.66-9.80Q375.04-10.32 373.88-11.56Q372.72-12.80 372.72-15.04L372.72-15.04Q372.72-17.92 375.12-19.66Q377.52-21.40 381.56-21.40L381.56-21.40Q383.68-21.40 385.80-20.88Q387.92-20.36 389.28-19.48L389.28-19.48L387.64-16.44Q385.04-18.12 381.52-18.12L381.52-18.12Q379.08-18.12 377.80-17.32Q376.52-16.52 376.52-15.20L376.52-15.20Q376.52-14.16 377.24-13.56Q377.96-12.96 379.02-12.68Q380.08-12.40 382.00-12.04L382.00-12.04Q384.56-11.60 386.14-11.10Q387.72-10.60 388.84-9.40Q389.96-8.20 389.96-6.04L389.96-6.04Q389.96-3.16 387.50-1.46Q385.04 0.24 380.80 0.24L380.80 0.24Z M395.56 0L395.56-21.20L399.40-21.20L399.40 0L395.56 0ZM397.48-25.28Q396.36-25.28 395.62-26Q394.88-26.72 394.88-27.76L394.88-27.76Q394.88-28.80 395.62-29.54Q396.36-30.28 397.48-30.28L397.48-30.28Q398.60-30.28 399.34-29.58Q400.08-28.88 400.08-27.84L400.08-27.84Q400.08-26.76 399.34-26.02Q398.60-25.28 397.48-25.28L397.48-25.28Z M416.60 0.24Q413.44 0.24 410.92-1.16Q408.40-2.56 406.98-5.02Q405.56-7.48 405.56-10.60L405.56-10.60Q405.56-13.72 406.98-16.18Q408.40-18.64 410.92-20.02Q413.44-21.40 416.60-21.40L416.60-21.40Q419.76-21.40 422.26-20.02Q424.76-18.64 426.18-16.18Q427.60-13.72 427.60-10.60L427.60-10.60Q427.60-7.48 426.18-5.02Q424.76-2.56 422.26-1.16Q419.76 0.24 416.60 0.24L416.60 0.24ZM416.60-3.12Q418.64-3.12 420.26-4.06Q421.88-5 422.80-6.70Q423.72-8.40 423.72-10.60L423.72-10.60Q423.72-12.80 422.80-14.50Q421.88-16.20 420.26-17.12Q418.64-18.04 416.60-18.04L416.60-18.04Q414.56-18.04 412.94-17.12Q411.32-16.20 410.38-14.50Q409.44-12.80 409.44-10.60L409.44-10.60Q409.44-8.40 410.38-6.70Q411.32-5 412.94-4.06Q414.56-3.12 416.60-3.12L416.60-3.12Z M445.04-21.40Q449.08-21.40 451.46-19.06Q453.84-16.72 453.84-12.20L453.84-12.20L453.84 0L450.00 0L450.00-11.76Q450.00-14.84 448.52-16.40Q447.04-17.96 444.28-17.96L444.28-17.96Q441.16-17.96 439.36-16.14Q437.56-14.32 437.56-10.92L437.56-10.92L437.56 0L433.72 0L433.72-21.20L437.40-21.20L437.40-18Q438.56-19.64 440.54-20.52Q442.52-21.40 445.04-21.40L445.04-21.40Z M473.32 0L473.32-21.20L477.16-21.20L477.16 0L473.32 0ZM475.24-25.28Q474.12-25.28 473.38-26Q472.64-26.72 472.64-27.76L472.64-27.76Q472.64-28.80 473.38-29.54Q474.12-30.28 475.24-30.28L475.24-30.28Q476.36-30.28 477.10-29.58Q477.84-28.88 477.84-27.84L477.84-27.84Q477.84-26.76 477.10-26.02Q476.36-25.28 475.24-25.28L475.24-25.28Z M496.60-21.40Q500.64-21.40 503.02-19.06Q505.40-16.72 505.40-12.20L505.40-12.20L505.40 0L501.56 0L501.56-11.76Q501.56-14.84 500.08-16.40Q498.60-17.96 495.84-17.96L495.84-17.96Q492.72-17.96 490.92-16.14Q489.12-14.32 489.12-10.92L489.12-10.92L489.12 0L485.28 0L485.28-21.20L488.96-21.20L488.96-18Q490.12-19.64 492.10-20.52Q494.08-21.40 496.60-21.40L496.60-21.40Z M544.04-10.48Q544.04-10.04 543.96-9.32L543.96-9.32L526.76-9.32Q527.12-6.52 529.22-4.82Q531.32-3.12 534.44-3.12L534.44-3.12Q538.24-3.12 540.56-5.68L540.56-5.68L542.68-3.20Q541.24-1.52 539.10-0.64Q536.96 0.24 534.32 0.24L534.32 0.24Q530.96 0.24 528.36-1.14Q525.76-2.52 524.34-5Q522.92-7.48 522.92-10.60L522.92-10.60Q522.92-13.68 524.30-16.16Q525.68-18.64 528.10-20.02Q530.52-21.40 533.56-21.40L533.56-21.40Q536.60-21.40 538.98-20.02Q541.36-18.64 542.70-16.16Q544.04-13.68 544.04-10.48L544.04-10.48ZM533.56-18.16Q530.80-18.16 528.94-16.48Q527.08-14.80 526.76-12.08L526.76-12.08L540.36-12.08Q540.04-14.76 538.18-16.46Q536.32-18.16 533.56-18.16L533.56-18.16Z M561.48-21.40Q565.52-21.40 567.90-19.06Q570.28-16.72 570.28-12.20L570.28-12.20L570.28 0L566.44 0L566.44-11.76Q566.44-14.84 564.96-16.40Q563.48-17.96 560.72-17.96L560.72-17.96Q557.60-17.96 555.80-16.14Q554.00-14.32 554.00-10.92L554.00-10.92L554.00 0L550.16 0L550.16-21.20L553.84-21.20L553.84-18Q555.00-19.64 556.98-20.52Q558.96-21.40 561.48-21.40L561.48-21.40Z M594.96-21.20L598.60-21.20L598.60-2.88Q598.60 2.68 595.84 5.34Q593.08 8 587.60 8L587.60 8Q584.60 8 581.88 7.18Q579.16 6.36 577.48 4.84L577.48 4.84L579.32 1.88Q580.80 3.16 582.98 3.90Q585.16 4.64 587.48 4.64L587.48 4.64Q591.20 4.64 592.98 2.88Q594.76 1.12 594.76-2.48L594.76-2.48L594.76-4.16Q593.40-2.52 591.42-1.70Q589.44-0.88 587.12-0.88L587.12-0.88Q584.08-0.88 581.62-2.18Q579.16-3.48 577.76-5.82Q576.36-8.16 576.36-11.16L576.36-11.16Q576.36-14.16 577.76-16.50Q579.16-18.84 581.62-20.12Q584.08-21.40 587.12-21.40L587.12-21.40Q589.52-21.40 591.58-20.52Q593.64-19.64 594.96-17.92L594.96-17.92L594.96-21.20ZM587.56-4.24Q589.64-4.24 591.30-5.12Q592.96-6 593.90-7.58Q594.84-9.16 594.84-11.16L594.84-11.16Q594.84-14.24 592.80-16.14Q590.76-18.04 587.56-18.04L587.56-18.04Q584.32-18.04 582.28-16.14Q580.24-14.24 580.24-11.16L580.24-11.16Q580.24-9.16 581.18-7.58Q582.12-6 583.78-5.12Q585.44-4.24 587.56-4.24L587.56-4.24Z M606.72 0L606.72-21.20L610.56-21.20L610.56 0L606.72 0ZM608.64-25.28Q607.52-25.28 606.78-26Q606.04-26.72 606.04-27.76L606.04-27.76Q606.04-28.80 606.78-29.54Q607.52-30.28 608.64-30.28L608.64-30.28Q609.76-30.28 610.50-29.58Q611.24-28.88 611.24-27.84L611.24-27.84Q611.24-26.76 610.50-26.02Q609.76-25.28 608.64-25.28L608.64-25.28Z M630.00-21.40Q634.04-21.40 636.42-19.06Q638.80-16.72 638.80-12.20L638.80-12.20L638.80 0L634.96 0L634.96-11.76Q634.96-14.84 633.48-16.40Q632.00-17.96 629.24-17.96L629.24-17.96Q626.12-17.96 624.32-16.14Q622.52-14.32 622.52-10.92L622.52-10.92L622.52 0L618.68 0L618.68-21.20L622.36-21.20L622.36-18Q623.52-19.64 625.50-20.52Q627.48-21.40 630.00-21.40L630.00-21.40Z M666-10.48Q666-10.04 665.92-9.32L665.92-9.32L648.72-9.32Q649.08-6.52 651.18-4.82Q653.28-3.12 656.40-3.12L656.40-3.12Q660.20-3.12 662.52-5.68L662.52-5.68L664.64-3.20Q663.20-1.52 661.06-0.64Q658.92 0.24 656.28 0.24L656.28 0.24Q652.92 0.24 650.32-1.14Q647.72-2.52 646.30-5Q644.88-7.48 644.88-10.60L644.88-10.60Q644.88-13.68 646.26-16.16Q647.64-18.64 650.06-20.02Q652.48-21.40 655.52-21.40L655.52-21.40Q658.56-21.40 660.94-20.02Q663.32-18.64 664.66-16.16Q666-13.68 666-10.48L666-10.48ZM655.52-18.16Q652.76-18.16 650.90-16.48Q649.04-14.80 648.72-12.08L648.72-12.08L662.32-12.08Q662-14.76 660.14-16.46Q658.28-18.16 655.52-18.16L655.52-18.16Z M691.28-10.48Q691.28-10.04 691.20-9.32L691.20-9.32L674-9.32Q674.36-6.52 676.46-4.82Q678.56-3.12 681.68-3.12L681.68-3.12Q685.48-3.12 687.80-5.68L687.80-5.68L689.92-3.20Q688.48-1.52 686.34-0.64Q684.20 0.24 681.56 0.24L681.56 0.24Q678.20 0.24 675.60-1.14Q673-2.52 671.58-5Q670.16-7.48 670.16-10.60L670.16-10.60Q670.16-13.68 671.54-16.16Q672.92-18.64 675.34-20.02Q677.76-21.40 680.80-21.40L680.80-21.40Q683.84-21.40 686.22-20.02Q688.60-18.64 689.94-16.16Q691.28-13.68 691.28-10.48L691.28-10.48ZM680.80-18.16Q678.04-18.16 676.18-16.48Q674.32-14.80 674-12.08L674-12.08L687.60-12.08Q687.28-14.76 685.42-16.46Q683.56-18.16 680.80-18.16L680.80-18.16Z M701.08-17.64Q702.08-19.48 704.04-20.44Q706-21.40 708.80-21.40L708.80-21.40L708.80-17.68Q708.48-17.72 707.92-17.72L707.92-17.72Q704.80-17.72 703.02-15.86Q701.24-14 701.24-10.56L701.24-10.56L701.24 0L697.40 0L697.40-21.20L701.08-21.20L701.08-17.64Z M714.32 0L714.32-21.20L718.16-21.20L718.16 0L714.32 0ZM716.24-25.28Q715.12-25.28 714.38-26Q713.64-26.72 713.64-27.76L713.64-27.76Q713.64-28.80 714.38-29.54Q715.12-30.28 716.24-30.28L716.24-30.28Q717.36-30.28 718.10-29.58Q718.84-28.88 718.84-27.84L718.84-27.84Q718.84-26.76 718.10-26.02Q717.36-25.28 716.24-25.28L716.24-25.28Z M737.60-21.40Q741.64-21.40 744.02-19.06Q746.40-16.72 746.40-12.20L746.40-12.20L746.40 0L742.56 0L742.56-11.76Q742.56-14.84 741.08-16.40Q739.60-17.96 736.84-17.96L736.84-17.96Q733.72-17.96 731.92-16.14Q730.12-14.32 730.12-10.92L730.12-10.92L730.12 0L726.28 0L726.28-21.20L729.96-21.20L729.96-18Q731.12-19.64 733.10-20.52Q735.08-21.40 737.60-21.40L737.60-21.40Z M771.08-21.20L774.72-21.20L774.72-2.88Q774.72 2.68 771.96 5.34Q769.20 8 763.72 8L763.72 8Q760.72 8 758.00 7.18Q755.28 6.36 753.60 4.84L753.60 4.84L755.44 1.88Q756.92 3.16 759.10 3.90Q761.28 4.64 763.60 4.64L763.60 4.64Q767.32 4.64 769.10 2.88Q770.88 1.12 770.88-2.48L770.88-2.48L770.88-4.16Q769.52-2.52 767.54-1.70Q765.56-0.88 763.24-0.88L763.24-0.88Q760.20-0.88 757.74-2.18Q755.28-3.48 753.88-5.82Q752.48-8.16 752.48-11.16L752.48-11.16Q752.48-14.16 753.88-16.50Q755.28-18.84 757.74-20.12Q760.20-21.40 763.24-21.40L763.24-21.40Q765.64-21.40 767.70-20.52Q769.76-19.64 771.08-17.92L771.08-17.92L771.08-21.20ZM763.68-4.24Q765.76-4.24 767.42-5.12Q769.08-6 770.02-7.58Q770.96-9.16 770.96-11.16L770.96-11.16Q770.96-14.24 768.92-16.14Q766.88-18.04 763.68-18.04L763.68-18.04Q760.44-18.04 758.40-16.14Q756.36-14.24 756.36-11.16L756.36-11.16Q756.36-9.16 757.30-7.58Q758.24-6 759.90-5.12Q761.56-4.24 763.68-4.24L763.68-4.24Z"/></g>
</svg>
</g></svg></svg>