<svg version="1.1" preserveAspectRatio="none" xmlns="http://www.w3.org/2000/svg" width="500" height="500" viewBox="0 0 500 500"><rect width="100%" height="100%" fill="#1A244D" fill-opacity="1"/><svg viewBox="563.6218 495.726 543.4219 139.48" width="333" height="85.47104928969553" x="83.5px" y="207.2645px" xmlns="http://www.w3.org/2000/svg" xmlns:xlink="http://www.w3.org/1999/xlink" preserveAspectRatio="none"><defs></defs><style>.background {fill:#1A244D;fill-opacity:1;}.icon1 {fill:#FFCC57;fill-opacity:1;}.icon1-str {stroke:#FFCC57;stroke-opacity:1;}.icon2 {fill:#3EA0C0;fill-opacity:1;}.icon3 {fill:#0AF9FF;fill-opacity:0.95;}.icon3-str {stroke:#0AF9FF;stroke-opacity:0.95;}</style><g opacity="1" transform="rotate(0 657.6216 495.726)">
<svg width="449.4221" height="98" x="657.6216" y="495.726" version="1.1" preserveAspectRatio="none" viewBox="0 0 449.4221 98">
  <defs><rect x="0" y="0" width="449.4221" height="98" rx="0px" ry="0px" id="id-B7crM0kCi1701648431868"></rect></defs><use class="icon1 icon3-str" style="stroke-width:0;" xlink:href="#id-B7crM0kCi1701648431868"></use>
</svg>
</g><g opacity="1" transform="rotate(0 649.8218 617.726)">
<svg width="371.0219" height="17.48" x="649.8218" y="617.726" version="1.1" preserveAspectRatio="none" viewBox="4.2 -30.28 812.52 38.28">
  <g transform="matrix(1 0 0 1 0 0)" class="icon1"><path id="id-6izo4zJp36" d="M15.12-28Q20.56-28 23.68-25.40Q26.80-22.80 26.80-18.24L26.80-18.24Q26.80-13.68 23.68-11.08Q20.56-8.48 15.12-8.48L15.12-8.48L8.20-8.48L8.20 0L4.20 0L4.20-28L15.12-28ZM15-11.96Q18.80-11.96 20.80-13.58Q22.80-15.20 22.80-18.24L22.80-18.24Q22.80-21.28 20.80-22.90Q18.80-24.52 15-24.52L15-24.52L8.20-24.52L8.20-11.96L15-11.96Z M37.44-17.64Q38.44-19.48 40.40-20.44Q42.36-21.40 45.16-21.40L45.16-21.40L45.16-17.68Q44.84-17.72 44.28-17.72L44.28-17.72Q41.16-17.72 39.38-15.86Q37.60-14 37.60-10.56L37.60-10.56L37.60 0L33.76 0L33.76-21.20L37.44-21.20L37.44-17.64Z M70.84-10.48Q70.84-10.04 70.76-9.32L70.76-9.32L53.56-9.32Q53.92-6.52 56.02-4.82Q58.12-3.12 61.24-3.12L61.24-3.12Q65.04-3.12 67.36-5.68L67.36-5.68L69.48-3.20Q68.04-1.52 65.90-0.64Q63.76 0.24 61.12 0.24L61.12 0.24Q57.76 0.24 55.16-1.14Q52.56-2.52 51.14-5Q49.72-7.48 49.72-10.60L49.72-10.60Q49.72-13.68 51.10-16.16Q52.48-18.64 54.90-20.02Q57.32-21.40 60.36-21.40L60.36-21.40Q63.40-21.40 65.78-20.02Q68.16-18.64 69.50-16.16Q70.84-13.68 70.84-10.48L70.84-10.48ZM60.36-18.16Q57.60-18.16 55.74-16.48Q53.88-14.80 53.56-12.08L53.56-12.08L67.16-12.08Q66.84-14.76 64.98-16.46Q63.12-18.16 60.36-18.16L60.36-18.16Z M87.40 0.24Q84.16 0.24 81.62-1.16Q79.08-2.56 77.64-5.02Q76.20-7.48 76.20-10.60L76.20-10.60Q76.20-13.72 77.64-16.18Q79.08-18.64 81.62-20.02Q84.16-21.40 87.40-21.40L87.40-21.40Q90.28-21.40 92.54-20.24Q94.80-19.08 96.04-16.88L96.04-16.88L93.12-15Q92.12-16.52 90.64-17.28Q89.16-18.04 87.36-18.04L87.36-18.04Q85.28-18.04 83.62-17.12Q81.96-16.20 81.02-14.50Q80.08-12.80 80.08-10.60L80.08-10.60Q80.08-8.36 81.02-6.66Q81.96-4.96 83.62-4.04Q85.28-3.12 87.36-3.12L87.36-3.12Q89.16-3.12 90.64-3.88Q92.12-4.64 93.12-6.16L93.12-6.16L96.04-4.32Q94.80-2.12 92.54-0.94Q90.28 0.24 87.40 0.24L87.40 0.24Z M103 0L103-21.20L106.84-21.20L106.84 0L103 0ZM104.92-25.28Q103.80-25.28 103.06-26Q102.32-26.72 102.32-27.76L102.32-27.76Q102.32-28.80 103.06-29.54Q103.80-30.28 104.92-30.28L104.92-30.28Q106.04-30.28 106.78-29.58Q107.52-28.88 107.52-27.84L107.52-27.84Q107.52-26.76 106.78-26.02Q106.04-25.28 104.92-25.28L104.92-25.28Z M122.24 0.24Q119.64 0.24 117.24-0.46Q114.84-1.16 113.48-2.24L113.48-2.24L115.08-5.28Q116.48-4.28 118.48-3.68Q120.48-3.08 122.52-3.08L122.52-3.08Q127.56-3.08 127.56-5.96L127.56-5.96Q127.56-6.92 126.88-7.48Q126.20-8.04 125.18-8.30Q124.16-8.56 122.28-8.88L122.28-8.88Q119.72-9.28 118.10-9.80Q116.48-10.32 115.32-11.56Q114.16-12.80 114.16-15.04L114.16-15.04Q114.16-17.92 116.56-19.66Q118.96-21.40 123-21.40L123-21.40Q125.12-21.40 127.24-20.88Q129.36-20.36 130.72-19.48L130.72-19.48L129.08-16.44Q126.48-18.12 122.96-18.12L122.96-18.12Q120.52-18.12 119.24-17.32Q117.96-16.52 117.96-15.20L117.96-15.20Q117.96-14.16 118.68-13.56Q119.40-12.96 120.46-12.68Q121.52-12.40 123.44-12.04L123.44-12.04Q126-11.60 127.58-11.10Q129.16-10.60 130.28-9.40Q131.40-8.20 131.40-6.04L131.40-6.04Q131.40-3.16 128.94-1.46Q126.48 0.24 122.24 0.24L122.24 0.24Z M138.20 0L138.20-21.20L142.04-21.20L142.04 0L138.20 0ZM140.12-25.28Q139-25.28 138.26-26Q137.52-26.72 137.52-27.76L137.52-27.76Q137.52-28.80 138.26-29.54Q139-30.28 140.12-30.28L140.12-30.28Q141.24-30.28 141.98-29.58Q142.72-28.88 142.72-27.84L142.72-27.84Q142.72-26.76 141.98-26.02Q141.24-25.28 140.12-25.28L140.12-25.28Z M160.44 0.24Q157.28 0.24 154.76-1.16Q152.24-2.56 150.82-5.02Q149.40-7.48 149.40-10.60L149.40-10.60Q149.40-13.72 150.82-16.18Q152.24-18.64 154.76-20.02Q157.28-21.40 160.44-21.40L160.44-21.40Q163.60-21.40 166.10-20.02Q168.60-18.64 170.02-16.18Q171.44-13.72 171.44-10.60L171.44-10.60Q171.44-7.48 170.02-5.02Q168.60-2.56 166.10-1.16Q163.60 0.24 160.44 0.24L160.44 0.24ZM160.44-3.12Q162.48-3.12 164.10-4.06Q165.72-5 166.64-6.70Q167.56-8.40 167.56-10.60L167.56-10.60Q167.56-12.80 166.64-14.50Q165.72-16.20 164.10-17.12Q162.48-18.04 160.44-18.04L160.44-18.04Q158.40-18.04 156.78-17.12Q155.16-16.20 154.22-14.50Q153.28-12.80 153.28-10.60L153.28-10.60Q153.28-8.40 154.22-6.70Q155.16-5 156.78-4.06Q158.40-3.12 160.44-3.12L160.44-3.12Z M190.08-21.40Q194.12-21.40 196.50-19.06Q198.88-16.72 198.88-12.20L198.88-12.20L198.88 0L195.04 0L195.04-11.76Q195.04-14.84 193.56-16.40Q192.08-17.96 189.32-17.96L189.32-17.96Q186.20-17.96 184.40-16.14Q182.60-14.32 182.60-10.92L182.60-10.92L182.60 0L178.76 0L178.76-21.20L182.44-21.20L182.44-18Q183.60-19.64 185.58-20.52Q187.56-21.40 190.08-21.40L190.08-21.40Z M228.48-21.40Q232.88-21.40 235.22-19.24Q237.56-17.08 237.56-12.80L237.56-12.80L237.56 0L233.92 0L233.92-2.80Q232.96-1.32 231.18-0.54Q229.40 0.24 226.96 0.24L226.96 0.24Q223.40 0.24 221.26-1.48Q219.12-3.20 219.12-6L219.12-6Q219.12-8.80 221.16-10.50Q223.20-12.20 227.64-12.20L227.64-12.20L233.72-12.20L233.72-12.96Q233.72-15.44 232.28-16.76Q230.84-18.08 228.04-18.08L228.04-18.08Q226.16-18.08 224.36-17.46Q222.56-16.84 221.32-15.80L221.32-15.80L219.72-18.68Q221.36-20 223.64-20.70Q225.92-21.40 228.48-21.40L228.48-21.40ZM227.60-2.72Q229.80-2.72 231.40-3.70Q233-4.68 233.72-6.48L233.72-6.48L233.72-9.44L227.80-9.44Q222.92-9.44 222.92-6.16L222.92-6.16Q222.92-4.56 224.16-3.64Q225.40-2.72 227.60-2.72L227.60-2.72Z M258-21.40Q262.04-21.40 264.42-19.06Q266.80-16.72 266.80-12.20L266.80-12.20L266.80 0L262.96 0L262.96-11.76Q262.96-14.84 261.48-16.40Q260-17.96 257.24-17.96L257.24-17.96Q254.12-17.96 252.32-16.14Q250.52-14.32 250.52-10.92L250.52-10.92L250.52 0L246.68 0L246.68-21.20L250.36-21.20L250.36-18Q251.52-19.64 253.50-20.52Q255.48-21.40 258-21.40L258-21.40Z M292.20-29.68L296.04-29.68L296.04 0L292.36 0L292.36-3.36Q291.08-1.60 289.12-0.68Q287.16 0.24 284.80 0.24L284.80 0.24Q281.72 0.24 279.28-1.12Q276.84-2.48 275.46-4.94Q274.08-7.40 274.08-10.60L274.08-10.60Q274.08-13.80 275.46-16.24Q276.84-18.68 279.28-20.04Q281.72-21.40 284.80-21.40L284.80-21.40Q287.08-21.40 289.00-20.54Q290.92-19.68 292.20-18L292.20-18L292.20-29.68ZM285.12-3.12Q287.12-3.12 288.76-4.06Q290.40-5 291.32-6.70Q292.24-8.40 292.24-10.60L292.24-10.60Q292.24-12.80 291.32-14.50Q290.40-16.20 288.76-17.12Q287.12-18.04 285.12-18.04L285.12-18.04Q283.08-18.04 281.46-17.12Q279.84-16.20 278.90-14.50Q277.96-12.80 277.96-10.60L277.96-10.60Q277.96-8.40 278.90-6.70Q279.84-5 281.46-4.06Q283.08-3.12 285.12-3.12L285.12-3.12Z M329.32-21.40Q332.40-21.40 334.84-20.04Q337.28-18.68 338.66-16.24Q340.04-13.80 340.04-10.60L340.04-10.60Q340.04-7.40 338.66-4.94Q337.28-2.48 334.84-1.12Q332.40 0.24 329.32 0.24L329.32 0.24Q327.04 0.24 325.14-0.64Q323.24-1.52 321.92-3.20L321.92-3.20L321.92 7.76L318.08 7.76L318.08-21.20L321.76-21.20L321.76-17.84Q323.04-19.60 325.00-20.50Q326.96-21.40 329.32-21.40L329.32-21.40ZM329.00-3.12Q331.04-3.12 332.66-4.06Q334.28-5 335.22-6.70Q336.16-8.40 336.16-10.60L336.16-10.60Q336.16-12.80 335.22-14.50Q334.28-16.20 332.66-17.12Q331.04-18.04 329.00-18.04L329.00-18.04Q327.00-18.04 325.38-17.10Q323.76-16.16 322.82-14.48Q321.88-12.80 321.88-10.60L321.88-10.60Q321.88-8.40 322.80-6.70Q323.72-5 325.36-4.06Q327.00-3.12 329.00-3.12L329.00-3.12Z M354.88-21.40Q359.28-21.40 361.62-19.24Q363.96-17.08 363.96-12.80L363.96-12.80L363.96 0L360.32 0L360.32-2.80Q359.36-1.32 357.58-0.54Q355.80 0.24 353.36 0.24L353.36 0.24Q349.80 0.24 347.66-1.48Q345.52-3.20 345.52-6L345.52-6Q345.52-8.80 347.56-10.50Q349.60-12.20 354.04-12.20L354.04-12.20L360.12-12.20L360.12-12.96Q360.12-15.44 358.68-16.76Q357.24-18.08 354.44-18.08L354.44-18.08Q352.56-18.08 350.76-17.46Q348.96-16.84 347.72-15.80L347.72-15.80L346.12-18.68Q347.76-20 350.04-20.70Q352.32-21.40 354.88-21.40L354.88-21.40ZM354.00-2.72Q356.20-2.72 357.80-3.70Q359.40-4.68 360.12-6.48L360.12-6.48L360.12-9.44L354.20-9.44Q349.32-9.44 349.32-6.16L349.32-6.16Q349.32-4.56 350.56-3.64Q351.80-2.72 354.00-2.72L354.00-2.72Z M379.16 0.24Q376.56 0.24 374.16-0.46Q371.76-1.16 370.40-2.24L370.40-2.24L372.00-5.28Q373.40-4.28 375.40-3.68Q377.40-3.08 379.44-3.08L379.44-3.08Q384.48-3.08 384.48-5.96L384.48-5.96Q384.48-6.92 383.80-7.48Q383.12-8.04 382.10-8.30Q381.08-8.56 379.20-8.88L379.20-8.88Q376.64-9.28 375.02-9.80Q373.40-10.32 372.24-11.56Q371.08-12.80 371.08-15.04L371.08-15.04Q371.08-17.92 373.48-19.66Q375.88-21.40 379.92-21.40L379.92-21.40Q382.04-21.40 384.16-20.88Q386.28-20.36 387.64-19.48L387.64-19.48L386.00-16.44Q383.40-18.12 379.88-18.12L379.88-18.12Q377.44-18.12 376.16-17.32Q374.88-16.52 374.88-15.20L374.88-15.20Q374.88-14.16 375.60-13.56Q376.32-12.96 377.38-12.68Q378.44-12.40 380.36-12.04L380.36-12.04Q382.92-11.60 384.50-11.10Q386.08-10.60 387.20-9.40Q388.32-8.20 388.32-6.04L388.32-6.04Q388.32-3.16 385.86-1.46Q383.40 0.24 379.16 0.24L379.16 0.24Z M401.20 0.24Q398.60 0.24 396.20-0.46Q393.80-1.16 392.44-2.24L392.44-2.24L394.04-5.28Q395.44-4.28 397.44-3.68Q399.44-3.08 401.48-3.08L401.48-3.08Q406.52-3.08 406.52-5.96L406.52-5.96Q406.52-6.92 405.84-7.48Q405.16-8.04 404.14-8.30Q403.12-8.56 401.24-8.88L401.24-8.88Q398.68-9.28 397.06-9.80Q395.44-10.32 394.28-11.56Q393.12-12.80 393.12-15.04L393.12-15.04Q393.12-17.92 395.52-19.66Q397.92-21.40 401.96-21.40L401.96-21.40Q404.08-21.40 406.20-20.88Q408.32-20.36 409.68-19.48L409.68-19.48L408.04-16.44Q405.44-18.12 401.92-18.12L401.92-18.12Q399.48-18.12 398.20-17.32Q396.92-16.52 396.92-15.20L396.92-15.20Q396.92-14.16 397.64-13.56Q398.36-12.96 399.42-12.68Q400.48-12.40 402.40-12.04L402.40-12.04Q404.96-11.60 406.54-11.10Q408.12-10.60 409.24-9.40Q410.36-8.20 410.36-6.04L410.36-6.04Q410.36-3.16 407.90-1.46Q405.44 0.24 401.20 0.24L401.20 0.24Z M417.16 0L417.16-21.20L421.00-21.20L421.00 0L417.16 0ZM419.08-25.28Q417.96-25.28 417.22-26Q416.48-26.72 416.48-27.76L416.48-27.76Q416.48-28.80 417.22-29.54Q417.96-30.28 419.08-30.28L419.08-30.28Q420.20-30.28 420.94-29.58Q421.68-28.88 421.68-27.84L421.68-27.84Q421.68-26.76 420.94-26.02Q420.20-25.28 419.08-25.28L419.08-25.28Z M439.40 0.24Q436.24 0.24 433.72-1.16Q431.20-2.56 429.78-5.02Q428.36-7.48 428.36-10.60L428.36-10.60Q428.36-13.72 429.78-16.18Q431.20-18.64 433.72-20.02Q436.24-21.40 439.40-21.40L439.40-21.40Q442.56-21.40 445.06-20.02Q447.56-18.64 448.98-16.18Q450.40-13.72 450.40-10.60L450.40-10.60Q450.40-7.48 448.98-5.02Q447.56-2.56 445.06-1.16Q442.56 0.24 439.40 0.24L439.40 0.24ZM439.40-3.12Q441.44-3.12 443.06-4.06Q444.68-5 445.60-6.70Q446.52-8.40 446.52-10.60L446.52-10.60Q446.52-12.80 445.60-14.50Q444.68-16.20 443.06-17.12Q441.44-18.04 439.40-18.04L439.40-18.04Q437.36-18.04 435.74-17.12Q434.12-16.20 433.18-14.50Q432.24-12.80 432.24-10.60L432.24-10.60Q432.24-8.40 433.18-6.70Q434.12-5 435.74-4.06Q437.36-3.12 439.40-3.12L439.40-3.12Z M469.04-21.40Q473.08-21.40 475.46-19.06Q477.84-16.72 477.84-12.20L477.84-12.20L477.84 0L474.00 0L474.00-11.76Q474.00-14.84 472.52-16.40Q471.04-17.96 468.28-17.96L468.28-17.96Q465.16-17.96 463.36-16.14Q461.56-14.32 461.56-10.92L461.56-10.92L461.56 0L457.72 0L457.72-21.20L461.40-21.20L461.40-18Q462.56-19.64 464.54-20.52Q466.52-21.40 469.04-21.40L469.04-21.40Z M499.72 0L499.72-21.20L503.56-21.20L503.56 0L499.72 0ZM501.64-25.28Q500.52-25.28 499.78-26Q499.04-26.72 499.04-27.76L499.04-27.76Q499.04-28.80 499.78-29.54Q500.52-30.28 501.64-30.28L501.64-30.28Q502.76-30.28 503.50-29.58Q504.24-28.88 504.24-27.84L504.24-27.84Q504.24-26.76 503.50-26.02Q502.76-25.28 501.64-25.28L501.64-25.28Z M524.20-21.40Q528.24-21.40 530.62-19.06Q533.00-16.72 533.00-12.20L533.00-12.20L533.00 0L529.16 0L529.16-11.76Q529.16-14.84 527.68-16.40Q526.20-17.96 523.44-17.96L523.44-17.96Q520.32-17.96 518.52-16.14Q516.72-14.32 516.72-10.92L516.72-10.92L516.72 0L512.88 0L512.88-21.20L516.56-21.20L516.56-18Q517.72-19.64 519.70-20.52Q521.68-21.40 524.20-21.40L524.20-21.40Z M574.04-10.48Q574.04-10.04 573.96-9.32L573.96-9.32L556.76-9.32Q557.12-6.52 559.22-4.82Q561.32-3.12 564.44-3.12L564.44-3.12Q568.24-3.12 570.56-5.68L570.56-5.68L572.68-3.20Q571.24-1.52 569.10-0.64Q566.96 0.24 564.32 0.24L564.32 0.24Q560.96 0.24 558.36-1.14Q555.76-2.52 554.34-5Q552.92-7.48 552.92-10.60L552.92-10.60Q552.92-13.68 554.30-16.16Q555.68-18.64 558.10-20.02Q560.52-21.40 563.56-21.40L563.56-21.40Q566.60-21.40 568.98-20.02Q571.36-18.64 572.70-16.16Q574.04-13.68 574.04-10.48L574.04-10.48ZM563.56-18.16Q560.80-18.16 558.94-16.48Q557.08-14.80 556.76-12.08L556.76-12.08L570.36-12.08Q570.04-14.76 568.18-16.46Q566.32-18.16 563.56-18.16L563.56-18.16Z M592.68-21.40Q596.72-21.40 599.10-19.06Q601.48-16.72 601.48-12.20L601.48-12.20L601.48 0L597.64 0L597.64-11.76Q597.64-14.84 596.16-16.40Q594.68-17.96 591.92-17.96L591.92-17.96Q588.80-17.96 587.00-16.14Q585.20-14.32 585.20-10.92L585.20-10.92L585.20 0L581.36 0L581.36-21.20L585.04-21.20L585.04-18Q586.20-19.64 588.18-20.52Q590.16-21.40 592.68-21.40L592.68-21.40Z M627.36-21.20L631.00-21.20L631.00-2.88Q631.00 2.68 628.24 5.34Q625.48 8 620.00 8L620.00 8Q617.00 8 614.28 7.18Q611.56 6.36 609.88 4.84L609.88 4.84L611.72 1.88Q613.20 3.16 615.38 3.90Q617.56 4.64 619.88 4.64L619.88 4.64Q623.60 4.64 625.38 2.88Q627.16 1.12 627.16-2.48L627.16-2.48L627.16-4.16Q625.80-2.52 623.82-1.70Q621.84-0.88 619.52-0.88L619.52-0.88Q616.48-0.88 614.02-2.18Q611.56-3.48 610.16-5.82Q608.76-8.16 608.76-11.16L608.76-11.16Q608.76-14.16 610.16-16.50Q611.56-18.84 614.02-20.12Q616.48-21.40 619.52-21.40L619.52-21.40Q621.92-21.40 623.98-20.52Q626.04-19.64 627.36-17.92L627.36-17.92L627.36-21.20ZM619.96-4.24Q622.04-4.24 623.70-5.12Q625.36-6 626.30-7.58Q627.24-9.16 627.24-11.16L627.24-11.16Q627.24-14.24 625.20-16.14Q623.16-18.04 619.96-18.04L619.96-18.04Q616.72-18.04 614.68-16.14Q612.64-14.24 612.64-11.16L612.64-11.16Q612.64-9.16 613.58-7.58Q614.52-6 616.18-5.12Q617.84-4.24 619.96-4.24L619.96-4.24Z M640.32 0L640.32-21.20L644.16-21.20L644.16 0L640.32 0ZM642.24-25.28Q641.12-25.28 640.38-26Q639.64-26.72 639.64-27.76L639.64-27.76Q639.64-28.80 640.38-29.54Q641.12-30.28 642.24-30.28L642.24-30.28Q643.36-30.28 644.10-29.58Q644.84-28.88 644.84-27.84L644.84-27.84Q644.84-26.76 644.10-26.02Q643.36-25.28 642.24-25.28L642.24-25.28Z M664.80-21.40Q668.84-21.40 671.22-19.06Q673.60-16.72 673.60-12.20L673.60-12.20L673.60 0L669.76 0L669.76-11.76Q669.76-14.84 668.28-16.40Q666.80-17.96 664.04-17.96L664.04-17.96Q660.92-17.96 659.12-16.14Q657.32-14.32 657.32-10.92L657.32-10.92L657.32 0L653.48 0L653.48-21.20L657.16-21.20L657.16-18Q658.32-19.64 660.30-20.52Q662.28-21.40 664.80-21.40L664.80-21.40Z M702.00-10.48Q702.00-10.04 701.92-9.32L701.92-9.32L684.72-9.32Q685.08-6.52 687.18-4.82Q689.28-3.12 692.40-3.12L692.40-3.12Q696.20-3.12 698.52-5.68L698.52-5.68L700.64-3.20Q699.20-1.52 697.06-0.64Q694.92 0.24 692.28 0.24L692.28 0.24Q688.92 0.24 686.32-1.14Q683.72-2.52 682.30-5Q680.88-7.48 680.88-10.60L680.88-10.60Q680.88-13.68 682.26-16.16Q683.64-18.64 686.06-20.02Q688.48-21.40 691.52-21.40L691.52-21.40Q694.56-21.40 696.94-20.02Q699.32-18.64 700.66-16.16Q702.00-13.68 702.00-10.48L702.00-10.48ZM691.52-18.16Q688.76-18.16 686.90-16.48Q685.04-14.80 684.72-12.08L684.72-12.08L698.32-12.08Q698.00-14.76 696.14-16.46Q694.28-18.16 691.52-18.16L691.52-18.16Z M728.48-10.48Q728.48-10.04 728.40-9.32L728.40-9.32L711.20-9.32Q711.56-6.52 713.66-4.82Q715.76-3.12 718.88-3.12L718.88-3.12Q722.68-3.12 725.00-5.68L725.00-5.68L727.12-3.20Q725.68-1.52 723.54-0.64Q721.40 0.24 718.76 0.24L718.76 0.24Q715.40 0.24 712.80-1.14Q710.20-2.52 708.78-5Q707.36-7.48 707.36-10.60L707.36-10.60Q707.36-13.68 708.74-16.16Q710.12-18.64 712.54-20.02Q714.96-21.40 718.00-21.40L718.00-21.40Q721.04-21.40 723.42-20.02Q725.80-18.64 727.14-16.16Q728.48-13.68 728.48-10.48L728.48-10.48ZM718.00-18.16Q715.24-18.16 713.38-16.48Q711.52-14.80 711.20-12.08L711.20-12.08L724.80-12.08Q724.48-14.76 722.62-16.46Q720.76-18.16 718.00-18.16L718.00-18.16Z M739.48-17.64Q740.48-19.48 742.44-20.44Q744.40-21.40 747.20-21.40L747.20-21.40L747.20-17.68Q746.88-17.72 746.32-17.72L746.32-17.72Q743.20-17.72 741.42-15.86Q739.64-14 739.64-10.56L739.64-10.56L739.64 0L735.80 0L735.80-21.20L739.48-21.20L739.48-17.64Z M753.92 0L753.92-21.20L757.76-21.20L757.76 0L753.92 0ZM755.84-25.28Q754.72-25.28 753.98-26Q753.24-26.72 753.24-27.76L753.24-27.76Q753.24-28.80 753.98-29.54Q754.72-30.28 755.84-30.28L755.84-30.28Q756.96-30.28 757.70-29.58Q758.44-28.88 758.44-27.84L758.44-27.84Q758.44-26.76 757.70-26.02Q756.96-25.28 755.84-25.28L755.84-25.28Z M778.40-21.40Q782.44-21.40 784.82-19.06Q787.20-16.72 787.20-12.20L787.20-12.20L787.20 0L783.36 0L783.36-11.76Q783.36-14.84 781.88-16.40Q780.40-17.96 777.64-17.96L777.64-17.96Q774.52-17.96 772.72-16.14Q770.92-14.32 770.92-10.92L770.92-10.92L770.92 0L767.08 0L767.08-21.20L770.76-21.20L770.76-18Q771.92-19.64 773.90-20.52Q775.88-21.40 778.40-21.40L778.40-21.40Z M813.08-21.20L816.72-21.20L816.72-2.88Q816.72 2.68 813.96 5.34Q811.20 8 805.72 8L805.72 8Q802.72 8 800.00 7.18Q797.28 6.36 795.60 4.84L795.60 4.84L797.44 1.88Q798.92 3.16 801.10 3.90Q803.28 4.64 805.60 4.64L805.60 4.64Q809.32 4.64 811.10 2.88Q812.88 1.12 812.88-2.48L812.88-2.48L812.88-4.16Q811.52-2.52 809.54-1.70Q807.56-0.88 805.24-0.88L805.24-0.88Q802.20-0.88 799.74-2.18Q797.28-3.48 795.88-5.82Q794.48-8.16 794.48-11.16L794.48-11.16Q794.48-14.16 795.88-16.50Q797.28-18.84 799.74-20.12Q802.20-21.40 805.24-21.40L805.24-21.40Q807.64-21.40 809.70-20.52Q811.76-19.64 813.08-17.92L813.08-17.92L813.08-21.20ZM805.68-4.24Q807.76-4.24 809.42-5.12Q811.08-6 812.02-7.58Q812.96-9.16 812.96-11.16L812.96-11.16Q812.96-14.24 810.92-16.14Q808.88-18.04 805.68-18.04L805.68-18.04Q802.44-18.04 800.40-16.14Q798.36-14.24 798.36-11.16L798.36-11.16Q798.36-9.16 799.30-7.58Q800.24-6 801.90-5.12Q803.56-4.24 805.68-4.24L805.68-4.24Z"/></g>
</svg>
</g><g opacity="1" transform="rotate(0 687.6216 525.726)">
<svg width="389.4221" height="38" x="687.6216" y="525.726" version="1.1" preserveAspectRatio="none" viewBox="1.56 -29.68 383.68 37.44">
  <g transform="matrix(1 0 0 1 0 0)" class="background"><path id="id-D6z1nYkh16" d="M22.24-6.24L22.24-14.44L28.16-14.44L28.16-3.08Q25.88-1.36 22.88-0.44Q19.88 0.48 16.84 0.48L16.84 0.48Q12.48 0.48 9-1.38Q5.52-3.24 3.54-6.54Q1.56-9.84 1.56-14L1.56-14Q1.56-18.16 3.54-21.46Q5.52-24.76 9.04-26.62Q12.56-28.48 16.96-28.48L16.96-28.48Q20.64-28.48 23.64-27.24Q26.64-26 28.68-23.64L28.68-23.64L24.52-19.80Q21.52-22.96 17.28-22.96L17.28-22.96Q14.60-22.96 12.52-21.84Q10.44-20.72 9.28-18.68Q8.12-16.64 8.12-14L8.12-14Q8.12-11.40 9.28-9.36Q10.44-7.32 12.50-6.18Q14.56-5.04 17.20-5.04L17.20-5.04Q20-5.04 22.24-6.24L22.24-6.24Z M33.72 0L33.72-29.68L39.96-29.68L39.96 0L33.72 0Z M56 0.32Q52.60 0.32 49.90-1.10Q47.20-2.52 45.68-5.04Q44.16-7.56 44.16-10.76L44.16-10.76Q44.16-13.96 45.68-16.48Q47.20-19 49.90-20.42Q52.60-21.84 56-21.84L56-21.84Q59.40-21.84 62.08-20.42Q64.76-19 66.28-16.48Q67.80-13.96 67.80-10.76L67.80-10.76Q67.80-7.56 66.28-5.04Q64.76-2.52 62.08-1.10Q59.40 0.32 56 0.32L56 0.32ZM56-4.80Q58.40-4.80 59.94-6.42Q61.48-8.04 61.48-10.76L61.48-10.76Q61.48-13.48 59.94-15.10Q58.40-16.72 56-16.72L56-16.72Q53.60-16.72 52.04-15.10Q50.48-13.48 50.48-10.76L50.48-10.76Q50.48-8.04 52.04-6.42Q53.60-4.80 56-4.80L56-4.80Z M84.68-21.84Q87.68-21.84 90.14-20.46Q92.60-19.08 94-16.58Q95.40-14.08 95.40-10.76L95.40-10.76Q95.40-7.44 94-4.94Q92.60-2.44 90.14-1.06Q87.68 0.32 84.68 0.32L84.68 0.32Q80.24 0.32 77.92-2.48L77.92-2.48L77.92 0L71.96 0L71.96-29.68L78.20-29.68L78.20-19.24Q80.56-21.84 84.68-21.84L84.68-21.84ZM83.60-4.80Q86-4.80 87.54-6.42Q89.08-8.04 89.08-10.76L89.08-10.76Q89.08-13.48 87.54-15.10Q86-16.72 83.60-16.72L83.60-16.72Q81.20-16.72 79.66-15.10Q78.12-13.48 78.12-10.76L78.12-10.76Q78.12-8.04 79.66-6.42Q81.20-4.80 83.60-4.80L83.60-4.80Z M107.88-21.84Q112.88-21.84 115.56-19.46Q118.24-17.08 118.24-12.28L118.24-12.28L118.24 0L112.40 0L112.40-2.68Q110.64 0.32 105.84 0.32L105.84 0.32Q103.36 0.32 101.54-0.52Q99.72-1.36 98.76-2.84Q97.80-4.32 97.80-6.20L97.80-6.20Q97.80-9.20 100.06-10.92Q102.32-12.64 107.04-12.64L107.04-12.64L112-12.64Q112-14.68 110.76-15.78Q109.52-16.88 107.04-16.88L107.04-16.88Q105.32-16.88 103.66-16.34Q102-15.80 100.84-14.88L100.84-14.88L98.60-19.24Q100.36-20.48 102.82-21.16Q105.28-21.84 107.88-21.84L107.88-21.84ZM107.40-3.88Q109-3.88 110.24-4.62Q111.48-5.36 112-6.80L112-6.80L112-9L107.72-9Q103.88-9 103.88-6.48L103.88-6.48Q103.88-5.28 104.82-4.58Q105.76-3.88 107.40-3.88L107.40-3.88Z M123.88 0L123.88-29.68L130.12-29.68L130.12 0L123.88 0Z M168.60 0L166.12-6L153.12-6L150.64 0L144.00 0L156.48-28L162.88-28L175.40 0L168.60 0ZM155.20-10.92L164.08-10.92L159.64-21.64L155.20-10.92Z M193.56-21.52L199.52-21.52L199.52 7.76L193.28 7.76L193.28-2.28Q190.96 0.32 186.84 0.32L186.84 0.32Q183.80 0.32 181.34-1.04Q178.88-2.40 177.48-4.92Q176.08-7.44 176.08-10.76L176.08-10.76Q176.08-14.08 177.48-16.60Q178.88-19.12 181.34-20.48Q183.80-21.84 186.84-21.84L186.84-21.84Q191.24-21.84 193.56-19.04L193.56-19.04L193.56-21.52ZM187.92-4.80Q190.28-4.80 191.84-6.42Q193.40-8.04 193.40-10.76L193.40-10.76Q193.40-13.48 191.84-15.10Q190.28-16.72 187.92-16.72L187.92-16.72Q185.52-16.72 183.96-15.10Q182.40-13.48 182.40-10.76L182.40-10.76Q182.40-8.04 183.96-6.42Q185.52-4.80 187.92-4.80L187.92-4.80Z M220.72-21.52L226.96-21.52L226.96 0L221.04 0L221.04-2.56Q219.80-1.16 218.08-0.42Q216.36 0.32 214.36 0.32L214.36 0.32Q210.12 0.32 207.64-2.12Q205.16-4.56 205.16-9.36L205.16-9.36L205.16-21.52L211.40-21.52L211.40-10.28Q211.40-5.08 215.76-5.08L215.76-5.08Q218-5.08 219.36-6.54Q220.72-8 220.72-10.88L220.72-10.88L220.72-21.52Z M241.44-21.84Q246.44-21.84 249.12-19.46Q251.80-17.08 251.80-12.28L251.80-12.28L251.80 0L245.96 0L245.96-2.68Q244.20 0.32 239.40 0.32L239.40 0.32Q236.92 0.32 235.10-0.52Q233.28-1.36 232.32-2.84Q231.36-4.32 231.36-6.20L231.36-6.20Q231.36-9.20 233.62-10.92Q235.88-12.64 240.60-12.64L240.60-12.64L245.56-12.64Q245.56-14.68 244.32-15.78Q243.08-16.88 240.60-16.88L240.60-16.88Q238.88-16.88 237.22-16.34Q235.56-15.80 234.40-14.88L234.40-14.88L232.16-19.24Q233.92-20.48 236.38-21.16Q238.84-21.84 241.44-21.84L241.44-21.84ZM240.96-3.88Q242.56-3.88 243.80-4.62Q245.04-5.36 245.56-6.80L245.56-6.80L245.56-9L241.28-9Q237.44-9 237.44-6.48L237.44-6.48Q237.44-5.28 238.38-4.58Q239.32-3.88 240.96-3.88L240.96-3.88Z M273.56-21.52L279.52-21.52L279.52 7.76L273.28 7.76L273.28-2.28Q270.96 0.32 266.84 0.32L266.84 0.32Q263.80 0.32 261.34-1.04Q258.88-2.40 257.48-4.92Q256.08-7.44 256.08-10.76L256.08-10.76Q256.08-14.08 257.48-16.60Q258.88-19.12 261.34-20.48Q263.80-21.84 266.84-21.84L266.84-21.84Q271.24-21.84 273.56-19.04L273.56-19.04L273.56-21.52ZM267.92-4.80Q270.28-4.80 271.84-6.42Q273.40-8.04 273.40-10.76L273.40-10.76Q273.40-13.48 271.84-15.10Q270.28-16.72 267.92-16.72L267.92-16.72Q265.52-16.72 263.96-15.10Q262.40-13.48 262.40-10.76L262.40-10.76Q262.40-8.04 263.96-6.42Q265.52-4.80 267.92-4.80L267.92-4.80Z M300.72-21.52L306.96-21.52L306.96 0L301.04 0L301.04-2.56Q299.80-1.16 298.08-0.42Q296.36 0.32 294.36 0.32L294.36 0.32Q290.12 0.32 287.64-2.12Q285.16-4.56 285.16-9.36L285.16-9.36L285.16-21.52L291.40-21.52L291.40-10.28Q291.40-5.08 295.76-5.08L295.76-5.08Q298.00-5.08 299.36-6.54Q300.72-8 300.72-10.88L300.72-10.88L300.72-21.52Z M333.84-10.68Q333.84-10.56 333.72-9L333.72-9L317.44-9Q317.88-7 319.52-5.84Q321.16-4.68 323.60-4.68L323.60-4.68Q325.28-4.68 326.58-5.18Q327.88-5.68 329.00-6.76L329.00-6.76L332.32-3.16Q329.28 0.32 323.44 0.32L323.44 0.32Q319.80 0.32 317.00-1.10Q314.20-2.52 312.68-5.04Q311.16-7.56 311.16-10.76L311.16-10.76Q311.16-13.92 312.66-16.46Q314.16-19 316.78-20.42Q319.40-21.84 322.64-21.84L322.64-21.84Q325.80-21.84 328.36-20.48Q330.92-19.12 332.38-16.58Q333.84-14.04 333.84-10.68L333.84-10.68ZM322.68-17.12Q320.56-17.12 319.12-15.92Q317.68-14.72 317.36-12.64L317.36-12.64L327.96-12.64Q327.64-14.68 326.20-15.90Q324.76-17.12 322.68-17.12L322.68-17.12Z M359.08-10.68Q359.08-10.56 358.96-9L358.96-9L342.68-9Q343.12-7 344.76-5.84Q346.40-4.68 348.84-4.68L348.84-4.68Q350.52-4.68 351.82-5.18Q353.12-5.68 354.24-6.76L354.24-6.76L357.56-3.16Q354.52 0.32 348.68 0.32L348.68 0.32Q345.04 0.32 342.24-1.10Q339.44-2.52 337.92-5.04Q336.40-7.56 336.40-10.76L336.40-10.76Q336.40-13.92 337.90-16.46Q339.40-19 342.02-20.42Q344.64-21.84 347.88-21.84L347.88-21.84Q351.04-21.84 353.60-20.48Q356.16-19.12 357.62-16.58Q359.08-14.04 359.08-10.68L359.08-10.68ZM347.92-17.12Q345.80-17.12 344.36-15.92Q342.92-14.72 342.60-12.64L342.60-12.64L353.20-12.64Q352.88-14.68 351.44-15.90Q350.00-17.12 347.92-17.12L347.92-17.12Z M376.32-21.84Q380.32-21.84 382.78-19.44Q385.24-17.04 385.24-12.32L385.24-12.32L385.24 0L379.00 0L379.00-11.36Q379.00-13.92 377.88-15.18Q376.76-16.44 374.64-16.44L374.64-16.44Q372.28-16.44 370.88-14.98Q369.48-13.52 369.48-10.64L369.48-10.64L369.48 0L363.24 0L363.24-21.52L369.20-21.52L369.20-19Q370.44-20.36 372.28-21.10Q374.12-21.84 376.32-21.84L376.32-21.84Z"/></g>
</svg>
</g><g opacity="1" transform="rotate(0 563.6218 495.726)">
<svg width="97.9998" height="98" x="563.6218" y="495.726" version="1.1" preserveAspectRatio="none" viewBox="0 0 97.9998 98">
  <defs><rect x="1.9599959999999998" y="1.9599959999999998" width="94.079808" height="94.080008" rx="0px" ry="0px" id="id-tBXipXk0b1701648431869"></rect></defs><use class="background icon1-str" style="stroke-width:3.9199919999999997;" xlink:href="#id-tBXipXk0b1701648431869"></use>
</svg>
</g><g opacity="1" transform="rotate(0 583.6218 512.5118)">
<svg width="57.9998" height="64.4284" x="583.6218" y="512.5118" version="1.1" preserveAspectRatio="none" viewBox="38.79999923706055 31.800003051757812 122.699951171875 136.29998779296875">
  <g transform="matrix(1 0 0 1 0 0)"><g><path d="M141.9 147H131c-4.5 0-8.2-3.7-8.2-8.2v-6.5c6.3-5 10.9-11.9 12.8-19.9h3.2c4.6 0 8.3-3.7 8.3-8.3V85.5c0-2.6-2.1-4.8-4.8-4.8h-2.2V65.1c0-4.6-3.5-8.3-8-8.8-5.1-8.1-13.8-13.3-23.4-13.9v-1.8c0-4.9-4-8.8-8.8-8.8-4.9 0-8.8 4-8.8 8.8v1.8c-9.5.6-18.3 5.8-23.4 13.9-4.5.4-8 4.2-8 8.8v15.6h-2.2c-2.6 0-4.8 2.2-4.8 4.8V104c0 4.6 3.7 8.3 8.3 8.3h3.2c2 8 6.6 15 12.8 19.9v6.5c0 4.5-3.7 8.2-8.2 8.2H58.1c-1 0-3.575.177-4.5.3-9.7 1.5-14.8 7.9-14.8 19 0 1 .8 1.9 1.9 1.9 1 0 1.9-.8 1.9-1.9 0-8.5 3.4-13.4 10.2-15v15c0 1 .8 1.9 1.9 1.9 1 0 1.9-.8 1.9-1.9v-15.5c.6 0 1.1-.1 1.6-.1h8.6v15.6c0 1 .8 1.9 1.9 1.9 1 0 1.9-.8 1.9-1.9v-15.7c1.8-.2 3.5-.8 5-1.8 6.7 5.7 15.1 8.9 24 8.9 8.8 0 17.4-3.3 24.2-9.2.1-.1.1-.2.2-.3.7.5 1.4 1 2.2 1.4v16.7c0 1 .8 1.9 1.9 1.9 1 0 1.9-.8 1.9-1.9v-15.7c.4 0 .8.1 1.2.1h9v15.6c0 1 .8 1.9 1.9 1.9 1 0 1.9-.8 1.9-1.9v-15.5c9.2.6 13.7 5.6 13.7 15.5 0 1 .8 1.9 1.9 1.9s1.9-.8 1.9-1.9c-.3-12.5-7-19.2-19.6-19.2zm-5.4-81.9v15.6h-10.2V65.1c0-2.7 2.1-4.9 4.7-5.1.1 0 .2.1.2.1.1 0 .2-.1.3-.1 2.8.1 5 2.3 5 5.1zm-8.4-8.2c-3.2 1.3-5.6 4.5-5.6 8.2v15.6h-13.7V46.2c7.7.5 14.8 4.5 19.3 10.7zM94.9 40.7c0-2.8 2.3-5.1 5.1-5.1s5.1 2.3 5.1 5.1v40H94.9v-40zm-3.7 5.5v34.6H77.4V65.1c0-3.7-2.3-6.9-5.5-8.2 4.5-6.2 11.6-10.2 19.3-10.7zM63.5 65.1c0-2.8 2.3-5.1 5.1-5.1s5.1 2.3 5.1 5.1v15.6H63.5V65.1zm3.5 38.4c0-1-.8-1.9-1.9-1.9s-1.9.8-1.9 1.9c0 1.7.2 3.4.4 5.1h-2.5c-2.6 0-4.6-2.1-4.6-4.6V85.5c0-.6.5-1.1 1.1-1.1h5.6v5.1c0 1 .8 1.9 1.9 1.9 1.1 0 1.9-.8 1.9-1.9v-5.1h66v5.1c0 1 .8 1.9 1.9 1.9s1.9-.8 1.9-1.9v-5.1h5.6c.6 0 1.1.5 1.1 1.1V104c0 2.6-2.1 4.6-4.6 4.6h-2.5c.2-1.7.4-3.4.4-5.1 0-1-.8-1.9-1.9-1.9s-1.9.8-1.9 1.9c0 18.2-14.8 33-33 33s-33-14.8-33-33zM99.4 154c-7.8 0-15.3-2.8-21.2-7.7 1.7-2 2.7-4.6 2.7-7.5v-4c5.6 3.4 12.1 5.4 19.1 5.4s13.5-2 19.1-5.4v4c0 2.6.8 4.9 2.2 6.9 0 0-.1 0-.1.1-6.1 5.2-13.8 8.2-21.8 8.2z" data-color="1" class="icon1"></path></g></g>
</svg>
</g></svg></svg>